<svg xmlns="http://www.w3.org/2000/svg" width="900.807" height="873.251" viewBox="0 0 900.807 873.251">
  <g id="Group_52" data-name="Group 52" transform="translate(0 2.602)" opacity="0.15">
    <path id="Path_126" data-name="Path 126" d="M1323.458,1177.924c-4.544,0-2.275-2.272,0-4.547" transform="translate(-1002.373 -691.206)" fill="none" stroke="#67eb97" stroke-linecap="round" stroke-linejoin="round" stroke-width="5.205"/>
    <path id="Path_127" data-name="Path 127" d="M1265.352,1062.423" transform="translate(-916.98 -634.82)" fill="none" stroke="#67eb97" stroke-linecap="round" stroke-linejoin="round" stroke-width="5.205"/>
    <path id="Path_129" data-name="Path 129" d="M1595.61,972.237c-4.55,0,0-2.272,0-2.272" transform="translate(-1408.668 -587.834)" fill="none" stroke="#67eb97" stroke-linecap="round" stroke-linejoin="round" stroke-width="5.205"/>
    <line id="Line_6" data-name="Line 6" y2="2.272" transform="translate(477.965 236.616)" fill="none" stroke="#67eb97" stroke-linecap="round" stroke-linejoin="round" stroke-width="5.205"/>
    <path id="Path_132" data-name="Path 132" d="M918.625,863.631" transform="translate(-399.729 -533.796)" fill="none" stroke="#67eb97" stroke-linecap="round" stroke-linejoin="round" stroke-width="5.205"/>
    <path id="Path_135" data-name="Path 135" d="M867.778,743.432" transform="translate(-323.875 -472.712)" fill="none" stroke="#67eb97" stroke-linecap="round" stroke-linejoin="round" stroke-width="5.205"/>
    <path id="Path_136" data-name="Path 136" d="M1039.769,1321.312c-2.269,2.275,0,0,2.275,0" transform="translate(-582.265 -766.385)" fill="none" stroke="#67eb97" stroke-linecap="round" stroke-linejoin="round" stroke-width="5.205"/>
    <line id="Line_7" data-name="Line 7" x1="2.27" transform="translate(402.94 514.002)" fill="none" stroke="#67eb97" stroke-linecap="round" stroke-linejoin="round" stroke-width="5.205"/>
    <path id="Path_137" data-name="Path 137" d="M1106.177,613.914c-4.544,0-2.275-2.275,0-4.547" transform="translate(-678.23 -404.582)" fill="none" stroke="#67eb97" stroke-linecap="round" stroke-linejoin="round" stroke-width="5.205"/>
    <line id="Line_8" data-name="Line 8" x2="2.27" transform="translate(498.434 159.311)" fill="none" stroke="#67eb97" stroke-linecap="round" stroke-linejoin="round" stroke-width="5.205"/>
    <path id="Path_138" data-name="Path 138" d="M1169.979,452.182h0" transform="translate(-773.863 -324.702)" fill="none" stroke="#67eb97" stroke-linecap="round" stroke-linejoin="round" stroke-width="5.205"/>
    <line id="Line_9" data-name="Line 9" y1="2.272" x2="2.275" transform="translate(152.836 193.417)" fill="none" stroke="#67eb97" stroke-linecap="round" stroke-linejoin="round" stroke-width="5.205"/>
    <line id="Line_10" data-name="Line 10" x2="2.275" transform="translate(405.345 727.723)" fill="none" stroke="#67eb97" stroke-linecap="round" stroke-linejoin="round" stroke-width="5.205"/>
    <path id="Path_149" data-name="Path 149" d="M1300.615,1734.7v2.275" transform="translate(-969.586 -976.466)" fill="none" stroke="#67eb97" stroke-linecap="round" stroke-linejoin="round" stroke-width="5.205"/>
    <path id="Path_150" data-name="Path 150" d="M1136.027,1803.15l-2.275,2.275" transform="translate(-722.933 -1011.25)" fill="none" stroke="#67eb97" stroke-linecap="round" stroke-linejoin="round" stroke-width="5.205"/>
    <path id="Path_154" data-name="Path 154" d="M1072.891,1423.021c-2.275,2.275-2.275,2.275,0,2.275" transform="translate(-629.026 -818.073)" fill="none" stroke="#67eb97" stroke-linecap="round" stroke-linejoin="round" stroke-width="5.205"/>
    <path id="Path_155" data-name="Path 155" d="M747.574,1533.975c0,2.272,2.275,2.272,4.549,2.272" transform="translate(-149.103 -874.458)" fill="none" stroke="#67eb97" stroke-linecap="round" stroke-linejoin="round" stroke-width="5.205"/>
    <path id="Path_156" data-name="Path 156" d="M942.751,1707.3c-2.275,0,0,0,0-2.275" transform="translate(-435.223 -961.384)" fill="none" stroke="#67eb97" stroke-linecap="round" stroke-linejoin="round" stroke-width="5.205"/>
    <line id="Line_11" data-name="Line 11" x1="2.275" transform="translate(600.746 625.411)" fill="none" stroke="#67eb97" stroke-linecap="round" stroke-linejoin="round" stroke-width="5.205"/>
    <path id="Path_157" data-name="Path 157" d="M946.365,1418.4" transform="translate(-441.112 -815.722)" fill="none" stroke="#67eb97" stroke-linecap="round" stroke-linejoin="round" stroke-width="5.205"/>
    <path id="Path_159" data-name="Path 159" d="M701.342,1700.405" transform="translate(-75.584 -959.036)" fill="none" stroke="#67eb97" stroke-linecap="round" stroke-linejoin="round" stroke-width="5.205"/>
    <path id="Path_160" data-name="Path 160" d="M918.625,1524.729" transform="translate(-399.729 -869.759)" fill="none" stroke="#67eb97" stroke-linecap="round" stroke-linejoin="round" stroke-width="5.205"/>
    <line id="Line_12" data-name="Line 12" x2="2.275" transform="translate(543.903 604.948)" fill="none" stroke="#67eb97" stroke-linecap="round" stroke-linejoin="round" stroke-width="5.205"/>
    <line id="Line_13" data-name="Line 13" y1="2.275" transform="translate(541.632 693.62)" fill="none" stroke="#67eb97" stroke-linecap="round" stroke-linejoin="round" stroke-width="5.205"/>
    <path id="Path_168" data-name="Path 168" d="M981.5,972.745c-5.659.205-13.234,2.812-20.233,2.729a55.184,55.184,0,0,1,19.3,8.3q-6.781-7.758-13.558-15.51c-.08,7,1.18,14.29,1.1,21.294,2.485-5.089,10.423-16.043,10.423-16.043" transform="translate(-483.577 -586.972)" fill="none" stroke="#67eb97" stroke-linecap="round" stroke-linejoin="round" stroke-width="3.144" opacity="0"/>
    <path id="Path_170" data-name="Path 170" d="M1429.83,929.76c-5.659.2-13.234,2.812-20.232,2.729a55.2,55.2,0,0,1,19.3,8.3q-6.779-7.757-13.558-15.51c-.08,7,1.18,14.291,1.1,21.295,2.485-5.089,10.424-16.043,10.424-16.043" transform="translate(-1152.399 -565.127)" fill="none" stroke="#67eb97" stroke-linecap="round" stroke-linejoin="round" stroke-width="3.144" opacity="0"/>
    <path id="Path_173" data-name="Path 173" d="M621.389,1759.216c-5.019.182-11.743,2.495-17.957,2.422a48.959,48.959,0,0,1,17.128,7.369q-6.014-6.884-12.034-13.766c-.071,6.217,1.05,12.683.98,18.9,2.2-4.517,9.244-14.238,9.244-14.238" transform="translate(52.523 -986.903)" fill="none" stroke="#67eb97" stroke-linecap="round" stroke-linejoin="round" stroke-width="2.79"/>
    <path id="Path_174" data-name="Path 174" d="M1285.3,791.457" transform="translate(-946.733 -497.118)" fill="none" stroke="#67eb97" stroke-linecap="round" stroke-linejoin="round" stroke-width="5.205"/>
    <path id="Path_175" data-name="Path 175" d="M1587.23,811.588c-1.525,0-1.525,0,0-1.528" transform="translate(-1396.598 -506.572)" fill="none" stroke="#67eb97" stroke-linecap="round" stroke-linejoin="round" stroke-width="5.205"/>
    <path id="Path_176" data-name="Path 176" d="M1322.5,608.5" transform="translate(-1002.235 -404.143)" fill="none" stroke="#67eb97" stroke-linecap="round" stroke-linejoin="round" stroke-width="5.205"/>
    <path id="Path_177" data-name="Path 177" d="M1359.1,815.85c0,1.527,0,1.527-1.525,1.527" transform="translate(-1056.078 -509.515)" fill="none" stroke="#67eb97" stroke-linecap="round" stroke-linejoin="round" stroke-width="5.205"/>
    <line id="Line_14" data-name="Line 14" y2="1.527" transform="translate(242.485 245.535)" fill="none" stroke="#67eb97" stroke-linecap="round" stroke-linejoin="round" stroke-width="5.205"/>
    <path id="Path_178" data-name="Path 178" d="M1803.146,748.041h3.049" transform="translate(-1722.316 -475.055)" fill="none" stroke="#67eb97" stroke-linecap="round" stroke-linejoin="round" stroke-width="5.205"/>
    <path id="Path_181" data-name="Path 181" d="M1973.7,1058.139" transform="translate(-1973.698 -632.643)" fill="none" stroke="#67eb97" stroke-linecap="round" stroke-linejoin="round" stroke-width="5.205"/>
    <line id="Line_16" data-name="Line 16" x2="1.525" transform="translate(74.726 132.681)" fill="none" stroke="#67eb97" stroke-linecap="round" stroke-linejoin="round" stroke-width="5.205"/>
    <path id="Path_184" data-name="Path 184" d="M1155.038,192.977c1.525,0,1.525,1.525,3.05,1.525" transform="translate(-755.462 -192.977)" fill="none" stroke="#67eb97" stroke-linecap="round" stroke-linejoin="round" stroke-width="5.205"/>
    <path id="Path_185" data-name="Path 185" d="M885.668,192.977h-1.525" transform="translate(-348.839 -192.977)" fill="none" stroke="#67eb97" stroke-linecap="round" stroke-linejoin="round" stroke-width="5.205"/>
    <path id="Path_186" data-name="Path 186" d="M919.367,385.232" transform="translate(-400.836 -290.679)" fill="none" stroke="#67eb97" stroke-linecap="round" stroke-linejoin="round" stroke-width="5.205"/>
    <path id="Path_188" data-name="Path 188" d="M578.271,199.178" transform="translate(108.015 -196.128)" fill="none" stroke="#67eb97" stroke-linecap="round" stroke-linejoin="round" stroke-width="5.205"/>
    <line id="Line_19" data-name="Line 19" x2="1.524" transform="translate(318.746 38.128)" fill="none" stroke="#67eb97" stroke-linecap="round" stroke-linejoin="round" stroke-width="5.205"/>
    <path id="Path_190" data-name="Path 190" d="M1186.053,737.165l1.525-1.524" transform="translate(-800.206 -468.753)" fill="none" stroke="#67eb97" stroke-linecap="round" stroke-linejoin="round" stroke-width="5.205"/>
    <path id="Path_193" data-name="Path 193" d="M852.919,1234.892c-1.525,1.525-3.05,4.574,0,0" transform="translate(-300.842 -722.467)" fill="none" stroke="#67eb97" stroke-linecap="round" stroke-linejoin="round" stroke-width="5.205"/>
    <path id="Path_198" data-name="Path 198" d="M727.121,1805.463" transform="translate(-114.041 -1012.425)" fill="none" stroke="#67eb97" stroke-linecap="round" stroke-linejoin="round" stroke-width="5.205"/>
    <line id="Line_22" data-name="Line 22" x2="1.526" transform="translate(623.757 686.284)" fill="none" stroke="#67eb97" stroke-linecap="round" stroke-linejoin="round" stroke-width="5.205"/>
    <path id="Path_199" data-name="Path 199" d="M454.234,1582.2" transform="translate(293.054 -898.964)" fill="none" stroke="#67eb97" stroke-linecap="round" stroke-linejoin="round" stroke-width="5.205"/>
    <line id="Line_23" data-name="Line 23" x1="1.525" y2="1.525" transform="translate(686.285 712.21)" fill="none" stroke="#67eb97" stroke-linecap="round" stroke-linejoin="round" stroke-width="5.205"/>
    <path id="Path_201" data-name="Path 201" d="M826.345,1772.879c1.526,0,1.526,0,1.526-1.525" transform="translate(-263.591 -995.092)" fill="none" stroke="#67eb97" stroke-linecap="round" stroke-linejoin="round" stroke-width="5.205"/>
    <line id="Line_24" data-name="Line 24" x1="1.525" transform="translate(664.933 674.083)" fill="none" stroke="#67eb97" stroke-linecap="round" stroke-linejoin="round" stroke-width="5.205"/>
    <path id="Path_202" data-name="Path 202" d="M395.459,661.967c56.288,28.946,120.61,90.054,157.6,141.516,59.5,83.622,59.5,194.585,130.259,271.776,64.327,70.759,131.869,99.7,218.708,128.651" transform="translate(-125.832 -431.313)" fill="none" stroke="#67eb97" stroke-linecap="round" stroke-linejoin="round" stroke-width="5.205"/>
    <path id="Path_203" data-name="Path 203" d="M1141.364,1368.577c-80.406-20.9-102.922-128.649-107.747-197.8-4.824-77.19,0-152.774-35.38-223.532C967.686,884.527,924.266,841.108,869.588,799.3" transform="translate(-598.351 -501.102)" fill="none" stroke="#67eb97" stroke-linecap="round" stroke-linejoin="round" stroke-width="5.205"/>
    <path id="Path_204" data-name="Path 204" d="M1447.724,342.184c16.933,7.559,21.177,12.273,21.177,12.273l165.525,128.556-58.608,75.463L1410.294,429.92s-8.129-4.674-17.358-17.193Z" transform="translate(-1348.801 -268.802)" fill="#fff" stroke="#67eb97" stroke-linecap="round" stroke-linejoin="round" stroke-width="7.948"/>
    <path id="Path_205" data-name="Path 205" d="M1448.067,369.076c16.937,7.559,21.177,12.273,21.177,12.273l165.525,128.56-38.06,49.008-165.53-128.559s-8.129-4.669-17.353-17.193Z" transform="translate(-1359.418 -282.469)" fill="#fff" stroke="#67eb97" stroke-linecap="round" stroke-linejoin="round" stroke-width="7.948"/>
    <path id="Path_206" data-name="Path 206" d="M1848.779,333.561,1793.991,404.1c.275.372-2.2-3.044-3.745-5.442-11.539-18.035-22.283-62.567-17.927-68.169s48.528-8.544,70.481.505C1847.354,332.873,1850.834,334.478,1848.779,333.561Z" transform="translate(-1749.856 -260.18)" fill="#fff" stroke="#67eb97" stroke-linecap="round" stroke-linejoin="round" stroke-width="7.948"/>
    <path id="Path_207" data-name="Path 207" d="M1664.971,421.342a38.85,38.85,0,1,1,6.854,54.513A38.844,38.844,0,0,1,1664.971,421.342Zm52.148,40.5a27.178,27.178,0,1,0-38.135,4.794A27.169,27.169,0,0,0,1717.119,461.843Z" transform="translate(-1578.656 -301.395)" fill="#fff" stroke="#67eb97" stroke-linecap="round" stroke-linejoin="round" stroke-width="7.948"/>
    <path id="Path_208" data-name="Path 208" d="M1691.041,478.7a27.178,27.178,0,1,0-4.795-38.135A27.177,27.177,0,0,0,1691.041,478.7Z" transform="translate(-1590.714 -313.458)" fill="#fff" stroke="#67eb97" stroke-linecap="round" stroke-linejoin="round" stroke-width="7.948"/>
    <path id="Path_209" data-name="Path 209" d="M1734.6,460.278l-45.2,25.379a27,27,0,0,1-7.679-12.915l45.859-25.75A27.1,27.1,0,0,1,1734.6,460.278Z" transform="translate(-1591.002 -322.065)" fill="#fff" stroke="#67eb97" stroke-linecap="round" stroke-linejoin="round" stroke-width="7.948"/>
    <g id="Group_49" data-name="Group 49" transform="translate(259.697 223.709)">
      <g id="Group_48" data-name="Group 48" transform="translate(16.489 14.297)">
        <path id="Path_210" data-name="Path 210" d="M1319.154,676.915l-15.518,19.975c20.7,33.026,53.358,27.306,53.358,27.306C1355.659,685.959,1319.154,676.915,1319.154,676.915Z" transform="translate(-1303.635 -676.915)" fill="#fff" stroke="#67eb97" stroke-linecap="round" stroke-linejoin="round" stroke-width="7.948"/>
        <path id="Path_211" data-name="Path 211" d="M1329.374,696.979l10.649-13.71c9.089,5.476,23.108,16.393,27.612,33.508C1367.634,716.777,1348.321,715.857,1329.374,696.979Z" transform="translate(-1326.934 -680.144)" fill="#fff" stroke="#67eb97" stroke-linecap="round" stroke-linejoin="round" stroke-width="7.948"/>
      </g>
      <path id="Path_212" data-name="Path 212" d="M1381.076,692.633l19.268-24.807-5.779-3.459L1376.3,687.888Z" transform="translate(-1366.231 -656.241)" fill="#fff" stroke="#67eb97" stroke-linecap="round" stroke-linejoin="round" stroke-width="7.948"/>
      <path id="Path_213" data-name="Path 213" d="M1394.9,680.861l-8.009-6.217a2.567,2.567,0,0,1-.455-3.6l17.243-22.2a2.564,2.564,0,0,1,3.6-.45l8.009,6.22Z" transform="translate(-1385.892 -647.846)" fill="#fff" stroke="#67eb97" stroke-linecap="round" stroke-linejoin="round" stroke-width="7.948"/>
    </g>
    <g id="Group_51" data-name="Group 51" transform="translate(234.831 255.728)">
      <g id="Group_50" data-name="Group 50" transform="translate(16.493 14.297)">
        <path id="Path_214" data-name="Path 214" d="M1369.719,742.019l-15.513,19.972c20.693,33.031,53.349,27.312,53.349,27.312C1406.22,751.065,1369.719,742.019,1369.719,742.019Z" transform="translate(-1354.206 -742.019)" fill="#fff" stroke="#67eb97" stroke-linecap="round" stroke-linejoin="round" stroke-width="7.948"/>
        <path id="Path_215" data-name="Path 215" d="M1379.945,762.08l10.649-13.708c9.089,5.477,23.112,16.393,27.606,33.506C1418.2,781.878,1398.888,780.963,1379.945,762.08Z" transform="translate(-1377.51 -745.248)" fill="#fff" stroke="#67eb97" stroke-linecap="round" stroke-linejoin="round" stroke-width="7.948"/>
      </g>
      <path id="Path_216" data-name="Path 216" d="M1431.637,757.736l19.268-24.809-5.779-3.457-18.268,23.522Z" transform="translate(-1416.794 -721.344)" fill="#fff" stroke="#67eb97" stroke-linecap="round" stroke-linejoin="round" stroke-width="7.948"/>
      <path id="Path_217" data-name="Path 217" d="M1445.458,745.963l-8.014-6.219a2.571,2.571,0,0,1-.45-3.6l17.238-22.2a2.568,2.568,0,0,1,3.6-.453l8.009,6.217Z" transform="translate(-1436.454 -712.948)" fill="#fff" stroke="#67eb97" stroke-linecap="round" stroke-linejoin="round" stroke-width="7.948"/>
    </g>
    <path id="Path_218" data-name="Path 218" d="M1342.224,481.938l87.6-7.649c26.371-2.4,33.381,16.593,13.933,41.76l-21.607,27.961Z" transform="translate(-1144.293 -335.833)" fill="#fff" stroke="#67eb97" stroke-linecap="round" stroke-linejoin="round" stroke-width="7.948"/>
    <path id="Path_219" data-name="Path 219" d="M1351.114,499.638l75.931-6.629c22.967-2.09,29.071,14.453,12.133,36.37l-18.668,24.157Z" transform="translate(-1142.655 -345.36)" fill="#fff" stroke="#67eb97" stroke-linecap="round" stroke-linejoin="round" stroke-width="7.948"/>
    <path id="Path_220" data-name="Path 220" d="M1528.134,643.787l14.274,86.767c4.2,26.147,24.337,28.234,43.909,3.165l21.742-27.86Z" transform="translate(-1388.927 -422.074)" fill="#fff" stroke="#67eb97" stroke-linecap="round" stroke-linejoin="round" stroke-width="7.948"/>
    <path id="Path_221" data-name="Path 221" d="M1528.134,660.412l12.368,75.211c3.664,22.767,21.2,24.59,38.246,2.752l18.783-24.067Z" transform="translate(-1378.398 -430.523)" fill="#fff" stroke="#67eb97" stroke-linecap="round" stroke-linejoin="round" stroke-width="7.948"/>
    <path id="Path_222" data-name="Path 222" d="M849.759,1383.909c-90.059,4.825-173.683-65.932-207.455-141.517-41.81-90.053-36.985-196.191-91.664-279.815-3.214-4.825-4.824-8.042-8.039-12.866" transform="translate(-145.931 -577.542)" fill="none" stroke="#67eb97" stroke-linecap="round" stroke-linejoin="round" stroke-width="5.205"/>
    <path id="Path_223" data-name="Path 223" d="M1216.192,825.455c17.688,20.908,38.6,45.03,51.459,70.759" transform="translate(-895.102 -514.396)" fill="none" stroke="#67eb97" stroke-linecap="round" stroke-linejoin="round" stroke-width="5.205"/>
    <path id="Path_224" data-name="Path 224" d="M1226,805.836c12.863,9.649,19.3,28.947,27.337,43.42" transform="translate(-885.614 -504.425)" fill="none" stroke="#67eb97" stroke-linecap="round" stroke-linejoin="round" stroke-width="5.205"/>
    <path id="Path_225" data-name="Path 225" d="M892.48,1404.22c3.215,85.232,17.688,154.383,80.405,218.708" transform="translate(-441.131 -808.518)" fill="none" stroke="#67eb97" stroke-linecap="round" stroke-linejoin="round" stroke-width="5.205"/>
    <path id="Path_226" data-name="Path 226" d="M241.031,1783.5c14.473-41.813-98.1-75.583-93.273,3.217" transform="translate(655.773 -978.741)" fill="none" stroke="#67eb97" stroke-linecap="round" stroke-linejoin="round" stroke-width="5.205"/>
    <path id="Path_227" data-name="Path 227" d="M365.019,1854.989c-8.039-24.122-46.634-32.164-61.107-8.042" transform="translate(456.2 -1026.106)" fill="none" stroke="#67eb97" stroke-linecap="round" stroke-linejoin="round" stroke-width="5.205"/>
    <path id="Path_228" data-name="Path 228" d="M474.372,1816.416c-9.649-30.556-46.634-28.946-72.366-17.688" transform="translate(298.603 -1005.223)" fill="none" stroke="#67eb97" stroke-linecap="round" stroke-linejoin="round" stroke-width="5.205"/>
    <path id="Path_229" data-name="Path 229" d="M266.812,1659.447c-17.691-20.9-57.892-14.474-67.54,11.258" transform="translate(605.869 -931.878)" fill="none" stroke="#67eb97" stroke-linecap="round" stroke-linejoin="round" stroke-width="5.205"/>
    <path id="Path_230" data-name="Path 230" d="M360.355,1704.806c-12.863-17.693-33.771-17.693-46.634,3.214" transform="translate(456.039 -954.72)" fill="none" stroke="#67eb97" stroke-linecap="round" stroke-linejoin="round" stroke-width="5.205"/>
    <path id="Path_231" data-name="Path 231" d="M480.372,1650.654c-11.259-51.461-72.371-56.286-104.532-17.69" transform="translate(305.471 -911.828)" fill="none" stroke="#67eb97" stroke-linecap="round" stroke-linejoin="round" stroke-width="5.205"/>
    <path id="Path_232" data-name="Path 232" d="M575.1,1863.444c-20.908-8.042-38.6,12.864-35.381,32.161" transform="translate(130.335 -1040.992)" fill="none" stroke="#67eb97" stroke-linecap="round" stroke-linejoin="round" stroke-width="5.205"/>
    <path id="Path_233" data-name="Path 233" d="M726.181,1871.1c-20.907-25.729-73.976-22.515-72.367,17.69" transform="translate(-77.032 -1037.395)" fill="none" stroke="#67eb97" stroke-linecap="round" stroke-linejoin="round" stroke-width="5.205"/>
    <path id="Path_234" data-name="Path 234" d="M862.838,1903.908c-6.434-1.61-9.649,0-12.869,6.432" transform="translate(-310.176 -1062.159)" fill="none" stroke="#67eb97" stroke-linecap="round" stroke-linejoin="round" stroke-width="5.205"/>
    <path id="Path_235" data-name="Path 235" d="M1098.1,1830.172c-24.122-8.039-64.322,4.824-48.245,38.6" transform="translate(-641.935 -1023.804)" fill="none" stroke="#67eb97" stroke-linecap="round" stroke-linejoin="round" stroke-width="5.205"/>
    <path id="Path_236" data-name="Path 236" d="M196.007,1889.295c6.434-22.512,30.557-51.459,57.893-35.378" transform="translate(620.387 -1034.682)" fill="none" stroke="#67eb97" stroke-linecap="round" stroke-linejoin="round" stroke-width="5.205"/>
  </g>
</svg>
