<svg xmlns="http://www.w3.org/2000/svg" width="23.407" height="20.677" viewBox="0 0 23.407 20.677">
  <g id="check-mark" transform="translate(-0.001 -20.566)">
    <path id="Path_110" data-name="Path 110" d="M22.386,20.724c-1.056-.569-2.234.528-2.925,1.178-1.584,1.544-2.925,3.331-4.428,4.956-1.666,1.787-3.209,3.575-4.916,5.322a14.657,14.657,0,0,0-2.681,3.25,53.326,53.326,0,0,0-4.347-4.225C1.911,30.312-.039,29.662,0,31.815c.081,2.8,2.559,5.809,4.388,7.719A4.64,4.64,0,0,0,7.354,41.24c1.422.081,2.884-1.625,3.738-2.559,1.5-1.625,2.722-3.453,4.1-5.119,1.788-2.194,3.616-4.347,5.363-6.581C21.654,25.6,25.107,22.187,22.386,20.724ZM1.789,31.653a.307.307,0,0,0-.163.041,1.978,1.978,0,0,1-.447-.163h0Q1.362,31.409,1.789,31.653Z" transform="translate(0 0)" fill="#fff"/>
  </g>
</svg>
