<svg xmlns="http://www.w3.org/2000/svg" width="20.421" height="23.333" viewBox="0 0 20.421 23.333">
  <g id="data-storage-stack-variant" transform="translate(-8.227)">
    <g id="Group_174" data-name="Group 174" transform="translate(8.227)">
      <path id="Path_466" data-name="Path 466" d="M28.648,7.72c0-.021-.011-.037-.011-.057L26.785.922A1.127,1.127,0,0,0,25.652,0H11.223a1.128,1.128,0,0,0-1.134.922L8.238,7.663c0,.02-.011.036-.011.057V9.575a1.841,1.841,0,0,0,.493,1.249l-.482,2.788c0,.02-.011.037-.011.058v1.855a1.843,1.843,0,0,0,.493,1.25l-.482,2.788c0,.02-.011.037-.011.057v1.856a1.859,1.859,0,0,0,1.856,1.857H26.791a1.859,1.859,0,0,0,1.857-1.857V19.621c0-.02-.011-.037-.011-.057l-.482-2.788a1.837,1.837,0,0,0,.493-1.25V13.671c0-.021-.011-.037-.011-.058l-.482-2.788a1.838,1.838,0,0,0,.493-1.249V7.72Zm-.929,13.756a.929.929,0,0,1-.928.929H10.085a.93.93,0,0,1-.928-.929V19.621a.93.93,0,0,1,.928-.929H26.792a.931.931,0,0,1,.928.929v1.856Zm0-5.95a.929.929,0,0,1-.928.929H10.085a.93.93,0,0,1-.928-.929V13.671a.93.93,0,0,1,.928-.929H26.792a.931.931,0,0,1,.928.929v1.855Zm0-5.95a.93.93,0,0,1-.928.929H10.085a.931.931,0,0,1-.928-.929V7.72a.931.931,0,0,1,.928-.929H26.792a.931.931,0,0,1,.928.929V9.575h0Z" transform="translate(-8.227)" fill="#fff"/>
      <path id="Path_467" data-name="Path 467" d="M21.68,112.329a.667.667,0,1,1-.668.667A.667.667,0,0,1,21.68,112.329Z" transform="translate(-18.749 -92.448)" fill="#fff"/>
      <path id="Path_468" data-name="Path 468" d="M21.68,78.709a.667.667,0,1,1-.668.666A.667.667,0,0,1,21.68,78.709Z" transform="translate(-18.749 -64.778)" fill="#fff"/>
      <path id="Path_469" data-name="Path 469" d="M21.68,45.086a.667.667,0,1,1-.668.667A.667.667,0,0,1,21.68,45.086Z" transform="translate(-18.749 -37.106)" fill="#fff"/>
    </g>
  </g>
</svg>
