<svg xmlns="http://www.w3.org/2000/svg" width="36.483" height="26.188" viewBox="0 0 36.483 26.188"><defs><style>.a{fill:#2496ed;}</style></defs><g transform="translate(-3610.977 1748)"><path class="a" d="M4068.385-1748a.5.5,0,0,1,.154.407c-.006.872,0,1.744,0,2.616,0,.331-.092.428-.416.429q-1.48,0-2.961,0c-.318,0-.415-.1-.416-.411,0-.878,0-1.756,0-2.634a.5.5,0,0,1,.155-.406Z" transform="translate(-437.269)"/><path class="a" d="M3624.34-1601.871q5.861,0,11.722,0a6.457,6.457,0,0,0,2.512-.507c.228-.1.231-.1.1-.321a4.8,4.8,0,0,1-.648-2.557,6.557,6.557,0,0,1,1.182-3.572l.1-.149c.184-.267.133-.251.4-.1a5.659,5.659,0,0,1,2.837,3.691c.088.362.083.363.456.316a7.115,7.115,0,0,1,3.213.248,3.548,3.548,0,0,1,1.148.646c.123.1.1.2.055.321a4.853,4.853,0,0,1-3.1,3.025,5.868,5.868,0,0,1-2.2.335.339.339,0,0,0-.381.262,23.341,23.341,0,0,1-2.538,4.851,16.1,16.1,0,0,1-6.767,5.611,19.9,19.9,0,0,1-5.263,1.487,24.184,24.184,0,0,1-4.42.218,18.556,18.556,0,0,1-5.281-.9,7.989,7.989,0,0,1-3.449-2.21,10.411,10.411,0,0,1-1.923-3.188,15.929,15.929,0,0,1-1.026-4.371c-.059-.615-.1-1.23-.1-1.848a1.19,1.19,0,0,1,1.259-1.289c.248-.005.5,0,.745,0Z" transform="translate(0 -133.768)"/><path class="a" d="M4189.879-1521.148c.5,0,1.005,0,1.508,0,.307,0,.4.093.4.4q0,1.317,0,2.635c0,.3-.113.417-.419.417q-1.48,0-2.962,0c-.329,0-.437-.111-.437-.437q0-1.29,0-2.58c0-.354.087-.439.44-.439Z" transform="translate(-556.015 -218.605)"/><path class="a" d="M3819.869-1631.557c-.508,0-1.017,0-1.526,0-.27,0-.381-.1-.383-.37q-.005-1.363,0-2.725a.323.323,0,0,1,.363-.36q1.545,0,3.088,0a.323.323,0,0,1,.363.36q.005,1.372,0,2.743c0,.25-.11.35-.361.351C3820.9-1631.555,3820.384-1631.557,3819.869-1631.557Z" transform="translate(-199.457 -108.878)"/><path class="a" d="M3943.831-1631.557c-.5,0-1.005,0-1.508,0-.273,0-.38-.1-.382-.369q-.005-1.363,0-2.725a.324.324,0,0,1,.362-.361q1.544-.005,3.089,0a.323.323,0,0,1,.364.359q.006,1.372,0,2.743c0,.246-.116.351-.362.353C3944.872-1631.555,3944.352-1631.557,3943.831-1631.557Z" transform="translate(-318.931 -108.878)"/><path class="a" d="M3697.854-1521.151q.754,0,1.508,0c.295,0,.4.1.4.387q0,1.344,0,2.689c0,.251-.115.376-.365.377q-1.553.008-3.107,0a.314.314,0,0,1-.342-.343q-.007-1.39,0-2.78c0-.226.111-.329.342-.33C3696.813-1521.153,3697.333-1521.151,3697.854-1521.151Z" transform="translate(-81.881 -218.602)"/><path class="a" d="M3819.867-1521.149c.509,0,1.017,0,1.526,0,.281,0,.382.1.383.384q0,1.344,0,2.689c0,.252-.114.379-.362.38q-1.544.009-3.088,0c-.25,0-.365-.127-.365-.377q0-1.353,0-2.707c0-.271.107-.368.38-.369C3818.85-1521.15,3819.358-1521.149,3819.867-1521.149Z" transform="translate(-199.458 -218.604)"/><path class="a" d="M3943.873-1521.148c.5,0,.993,0,1.49,0,.3,0,.4.095.4.4q0,1.326,0,2.652c0,.279-.115.4-.4.4-.594,0-1.187,0-1.78,0-.406,0-.812,0-1.217,0-.307,0-.419-.115-.419-.418q0-1.308,0-2.616c0-.332.092-.422.42-.422Z" transform="translate(-318.937 -218.605)"/><path class="a" d="M4066.689-1631.56c-.5,0-.992,0-1.489,0-.3,0-.392-.09-.393-.388q0-1.334,0-2.669c0-.3.095-.4.4-.4q1.488,0,2.977,0c.319,0,.41.095.411.412q0,1.325,0,2.651c0,.308-.088.394-.4.394C4067.694-1631.559,4067.192-1631.56,4066.689-1631.56Z" transform="translate(-437.334 -108.875)"/><path class="a" d="M4066.721-1521.15c.508,0,1.017,0,1.525,0,.256,0,.351.1.352.352q0,1.371,0,2.741c0,.246-.105.36-.354.361q-1.542.007-3.086,0c-.248,0-.351-.115-.352-.363q0-1.37,0-2.741c0-.255.1-.349.354-.35C4065.681-1521.151,4066.2-1521.15,4066.721-1521.15Z" transform="translate(-437.332 -218.603)"/></g></svg>