<svg xmlns="http://www.w3.org/2000/svg" width="26.053" height="24.968" viewBox="0 0 26.053 24.968">
  <g id="business-and-finance" transform="translate(0 -1)">
    <path id="Path_296" data-name="Path 296" d="M3.086,11.762a1.086,1.086,0,0,1-.767-1.853l7.5-7.5A1.085,1.085,0,1,1,11.35,3.947l-7.5,7.5a1.083,1.083,0,0,1-.767.318Z" transform="translate(0.171 0.094)" fill="#fff"/>
    <path id="Path_297" data-name="Path 297" d="M11.614,6.428a.81.81,0,0,1-.575-.239l-3.8-3.8A.814.814,0,0,1,7.814,1h3.8a.814.814,0,0,1,.814.814v3.8a.814.814,0,0,1-.814.814Z" transform="translate(0.599)" fill="#fff"/>
    <path id="Path_298" data-name="Path 298" d="M7.513,15.357V21.6H1V15.357A1.357,1.357,0,0,1,2.357,14h3.8A1.357,1.357,0,0,1,7.513,15.357Z" transform="translate(0.086 1.112)" fill="#fff"/>
    <path id="Path_299" data-name="Path 299" d="M15.513,11.357V21.941H9V11.357A1.357,1.357,0,0,1,10.357,10h3.8A1.357,1.357,0,0,1,15.513,11.357Z" transform="translate(0.77 0.77)" fill="#fff"/>
    <path id="Path_300" data-name="Path 300" d="M23.513,7.357V22.283H17V7.357A1.357,1.357,0,0,1,18.357,6h3.8A1.357,1.357,0,0,1,23.513,7.357Z" transform="translate(1.455 0.428)" fill="#fff"/>
    <path id="Path_301" data-name="Path 301" d="M25.239,24.128H.814a.814.814,0,0,1,0-1.628H25.239a.814.814,0,0,1,0,1.628Z" transform="translate(0 1.84)" fill="#fff"/>
  </g>
</svg>
