<svg xmlns="http://www.w3.org/2000/svg" width="26.041" height="26.562" viewBox="0 0 26.041 26.562">
  <g id="project-management" transform="translate(-4.56 0.005)">
    <g id="Group_151" data-name="Group 151" transform="translate(24.453 13.296)">
      <g id="Group_150" data-name="Group 150">
        <path id="Path_457" data-name="Path 457" d="M354.652,233.529a.456.456,0,0,0-.816.209l-.253,1.774a.445.445,0,0,1-.024.067,8.2,8.2,0,0,0,1.115-2.02Z" transform="translate(-353.559 -233.346)" fill="#fff"/>
      </g>
    </g>
    <g id="Group_153" data-name="Group 153" transform="translate(9.683 2.396)">
      <g id="Group_152" data-name="Group 152" transform="translate(0)">
        <path id="Path_458" data-name="Path 458" d="M108.768,55.576a.5.5,0,0,1-.064,0L106,55.185a.456.456,0,0,1-.387-.516h0l.253-1.774a.456.456,0,0,0-.725-.429L103.7,53.541a.456.456,0,0,1-.638-.091h0l-1.642-2.189a.456.456,0,0,1,.091-.638l1.433-1.075a.456.456,0,0,0-.209-.816l-1.774-.254a.456.456,0,0,1-.387-.516h0l.387-2.708a.456.456,0,0,1,.516-.387h0l1.774.254a.453.453,0,0,0,.456-.219.446.446,0,0,0-.027-.506l-1.074-1.433a.456.456,0,0,1,.091-.638l.259-.194a8.363,8.363,0,0,0-1.256.034A8.208,8.208,0,0,0,98.21,57.231a2.615,2.615,0,0,1,1.237,2.19v1.843a1.368,1.368,0,0,0,1.368,1.368h3.648a1.368,1.368,0,0,0,1.368-1.368v-1.8a2.686,2.686,0,0,1,1.263-2.244,8.263,8.263,0,0,0,1.9-1.705A.455.455,0,0,1,108.768,55.576Zm-5.674,5.688h-.912V59.9h.912Zm-.912-2.28a2.911,2.911,0,0,0-1.87-2.718,6.384,6.384,0,0,1-1.077-11.348l.484.772a5.472,5.472,0,0,0,.922,9.728,3.815,3.815,0,0,1,2.452,3.566Z" transform="translate(-94.426 -42.12)" fill="#fff"/>
      </g>
    </g>
    <g id="Group_155" data-name="Group 155" transform="translate(16.071 25.188)">
      <g id="Group_154" data-name="Group 154">
        <path id="Path_459" data-name="Path 459" d="M206.5,441.987v.456a.912.912,0,0,0,.912.912h1.824a.912.912,0,0,0,.912-.912v-.456Z" transform="translate(-206.503 -441.987)" fill="#fff"/>
      </g>
    </g>
    <g id="Group_157" data-name="Group 157" transform="translate(5.007 11.809)">
      <g id="Group_156" data-name="Group 156" transform="translate(0)">
        <path id="Path_460" data-name="Path 460" d="M20.6,213.35a8.633,8.633,0,0,1-.779-.57,2.73,2.73,0,1,1-2.757-3.967,8.684,8.684,0,0,1-.361-1.546l-.08.379a.912.912,0,0,1-1.409.564l-.948-.651-.831.829.653.949a.912.912,0,0,1-.563,1.41l-1.137.239v1.083l1.137.239a.912.912,0,0,1,.563,1.41l-.653.944.831.829.948-.653a.912.912,0,0,1,1.41.563l.239,1.139h1.084l.239-1.137a.912.912,0,0,1,1.41-.563l.947.651.978-.978A2.226,2.226,0,0,0,20.6,213.35Z" transform="translate(-12.391 -207.267)" fill="#fff"/>
      </g>
    </g>
    <g id="Group_159" data-name="Group 159" transform="translate(16.071 23.364)">
      <g id="Group_158" data-name="Group 158">
        <rect id="Rectangle_675" data-name="Rectangle 675" width="3.648" height="0.912" fill="#fff"/>
      </g>
    </g>
    <g id="Group_161" data-name="Group 161" transform="translate(16.8 1.082)">
      <g id="Group_160" data-name="Group 160">
        <path id="Path_461" data-name="Path 461" d="M231.783,25.841a1.368,1.368,0,0,1-.627-2.449l1.068-.8-1.094-1.459-1.068.8a1.368,1.368,0,0,1-2.176-1.286l.189-1.322-1.805-.258-.189,1.322a1.368,1.368,0,0,1-2.449.627l-.8-1.07-1.459,1.094.8,1.068a1.368,1.368,0,0,1-1.288,2.175l-1.322-.189L219.3,25.9l1.322.189a1.368,1.368,0,0,1,.627,2.449l-1.068.8,1.094,1.459,1.068-.8a1.368,1.368,0,0,1,2.175,1.288l-.189,1.322,1.809.259.189-1.322a1.368,1.368,0,0,1,2.449-.627l.8,1.068,1.459-1.094-.8-1.07a1.368,1.368,0,0,1,1.286-2.175l1.322.189.258-1.805ZM226.2,28.7a2.736,2.736,0,1,1,2.736-2.736A2.736,2.736,0,0,1,226.2,28.7Z" transform="translate(-219.303 -19.067)" fill="#fff"/>
      </g>
    </g>
    <g id="Group_163" data-name="Group 163" transform="translate(26.559 16.98)">
      <g id="Group_162" data-name="Group 162" transform="translate(0)">
        <rect id="Rectangle_676" data-name="Rectangle 676" width="3.192" height="0.912" fill="#fff"/>
      </g>
    </g>
    <g id="Group_165" data-name="Group 165" transform="translate(25.811 19.365)">
      <g id="Group_164" data-name="Group 164" transform="translate(0 0)">
        <rect id="Rectangle_677" data-name="Rectangle 677" width="0.912" height="3.561" transform="matrix(0.64, -0.768, 0.768, 0.64, 0, 0.701)" fill="#fff"/>
      </g>
    </g>
    <g id="Group_167" data-name="Group 167" transform="translate(23.823 20.628)">
      <g id="Group_166" data-name="Group 166">
        <rect id="Rectangle_678" data-name="Rectangle 678" width="0.912" height="3.192" fill="#fff"/>
      </g>
    </g>
    <g id="Group_169" data-name="Group 169" transform="translate(4.56 6.962)">
      <g id="Group_168" data-name="Group 168" transform="translate(0 0)">
        <rect id="Rectangle_679" data-name="Rectangle 679" width="3.76" height="0.912" transform="translate(0 0.912) rotate(-14.035)" fill="#fff"/>
      </g>
    </g>
    <g id="Group_171" data-name="Group 171" transform="translate(5.318 2.474)">
      <g id="Group_170" data-name="Group 170" transform="translate(0 0)">
        <rect id="Rectangle_680" data-name="Rectangle 680" width="0.912" height="3.922" transform="matrix(0.581, -0.814, 0.814, 0.581, 0, 0.742)" fill="#fff"/>
      </g>
    </g>
    <g id="Group_173" data-name="Group 173" transform="translate(9.225 -0.005)">
      <g id="Group_172" data-name="Group 172" transform="translate(0 0)">
        <rect id="Rectangle_681" data-name="Rectangle 681" width="0.912" height="3.765" transform="matrix(0.969, -0.248, 0.248, 0.969, 0, 0.226)" fill="#fff"/>
      </g>
    </g>
  </g>
</svg>
