<svg xmlns="http://www.w3.org/2000/svg" width="29.978" height="29.978" viewBox="0 0 29.978 29.978">
  <g id="directions" transform="translate(0 0)">
    <path id="Path_107" data-name="Path 107" d="M3.77,159.525a.878.878,0,0,0,1.5-.621v-1.756H9.72a3.516,3.516,0,0,1,3.513,3.513v10.6a.878.878,0,0,0,.878.878h1.757a.878.878,0,0,0,.878-.878v-10.6a7.034,7.034,0,0,0-7.026-7.026H5.27v-1.756a.878.878,0,0,0-1.5-.621L.257,154.77a.878.878,0,0,0,0,1.242Zm0,0" transform="translate(0 -142.158)" fill="#fff"/>
    <path id="Path_108" data-name="Path 108" d="M185.392,11.521a8.744,8.744,0,0,1,1.757-1.057V5.27H188.9a.878.878,0,0,0,.621-1.5L186.013.258a.878.878,0,0,0-1.242,0l-3.513,3.513a.878.878,0,0,0,.621,1.5h1.756v5.194A8.744,8.744,0,0,1,185.392,11.521Zm0,0" transform="translate(-170.403 0)" fill="#fff"/>
    <path id="Path_109" data-name="Path 109" d="M287.963,151.257a.878.878,0,0,0-1.5.621v1.756h-4.45a6.978,6.978,0,0,0-3.979,1.246,8.732,8.732,0,0,1,1.755,3.084,3.478,3.478,0,0,1,2.224-.817h4.45V158.9a.878.878,0,0,0,1.5.621l3.513-3.512a.878.878,0,0,0,0-1.242Zm0,0" transform="translate(-261.755 -142.158)" fill="#fff"/>
  </g>
</svg>
