<svg xmlns="http://www.w3.org/2000/svg" width="28.465" height="32" viewBox="0 0 28.465 32"><defs><style>.a{fill:#de33a6;}</style></defs><g transform="translate(-1358.74 810.625)"><path class="a" d="M1358.742-788.037a2.821,2.821,0,0,1,1.993-2.7.242.242,0,0,0,.2-.281q-.007-3.6,0-7.207a.247.247,0,0,0-.217-.284,2.823,2.823,0,0,1-1.966-2.418A2.824,2.824,0,0,1,1361.1-804a2.728,2.728,0,0,1,2.385.72.23.23,0,0,0,.326.04q3.135-1.819,6.277-3.625a.219.219,0,0,0,.121-.291,2.832,2.832,0,0,1,2.3-3.431,2.845,2.845,0,0,1,3.254,2.325,2.734,2.734,0,0,1-.046,1.139.182.182,0,0,0,.1.243q3.169,1.824,6.333,3.658a.193.193,0,0,0,.274-.036,2.709,2.709,0,0,1,2.109-.777,2.816,2.816,0,0,1,2.611,2.266,2.829,2.829,0,0,1-1.987,3.277.178.178,0,0,0-.153.2q0,3.667,0,7.335c0,.131.064.17.171.205a2.773,2.773,0,0,1,1.952,2.091,2.832,2.832,0,0,1-2.165,3.383,2.793,2.793,0,0,1-2.62-.784.173.173,0,0,0-.247-.035q-3.143,1.821-6.291,3.634a.2.2,0,0,0-.105.268,2.836,2.836,0,0,1-2.283,3.532,2.846,2.846,0,0,1-3.241-2.325,2.686,2.686,0,0,1,.044-1.139.184.184,0,0,0-.106-.243q-3.162-1.82-6.32-3.647a.192.192,0,0,0-.275.027,2.743,2.743,0,0,1-2.1.773,2.809,2.809,0,0,1-2.628-2.3C1358.764-787.686,1358.76-787.862,1358.742-788.037Zm14.229-.659q4.227,0,8.454,0a.2.2,0,0,0,.234-.17,2.636,2.636,0,0,1,.661-1.133.172.172,0,0,0,.029-.247q-.915-1.574-1.822-3.152l-4.831-8.367q-.91-1.577-1.819-3.154c-.058-.1-.11-.159-.249-.123a2.56,2.56,0,0,1-1.278.007.218.218,0,0,0-.289.131q-.815,1.428-1.642,2.85-3.409,5.9-6.821,11.808a.172.172,0,0,0,.024.247,2.548,2.548,0,0,1,.65,1.1c.044.158.117.2.278.2Q1368.76-788.7,1372.971-788.7Zm.01,1.314h-8.4a.625.625,0,0,0-.159,0,.164.164,0,0,0-.1.078c-.01.023.021.073.046.1a.353.353,0,0,0,.094.06q3.146,1.815,6.29,3.634a.217.217,0,0,0,.312-.033,2.807,2.807,0,0,1,3.873.047.232.232,0,0,0,.338.036c.877-.514,1.759-1.02,2.639-1.528l3.622-2.091c.132-.076.168-.181.076-.262a.338.338,0,0,0-.206-.044Q1377.191-787.383,1372.981-787.382Zm-10.752-7.248v.863c0,.916,0,1.832,0,2.748a.873.873,0,0,0,.073.24.853.853,0,0,0,.185-.162c.136-.216.259-.44.386-.662q2.406-4.169,4.812-8.338,1.625-2.814,3.248-5.627a.639.639,0,0,0,.036-.213.692.692,0,0,0-.21.043q-1.6.916-3.2,1.84-1.562.9-3.125,1.8a.216.216,0,0,0-.12.264,3.534,3.534,0,0,1,.058.934,2.751,2.751,0,0,1-1.944,2.381.257.257,0,0,0-.209.293C1362.231-797.026,1362.229-795.828,1362.229-794.63Zm21.485.023v-3.627a.139.139,0,0,1,0-.016c.017-.143-.039-.213-.185-.259a2.808,2.808,0,0,1-1.911-3.317.2.2,0,0,0-.114-.265q-2.451-1.407-4.9-2.825c-.493-.285-.986-.57-1.482-.85-.041-.023-.1-.009-.155-.012,0,.053,0,.106.007.159,0,.014.015.028.023.042q4.223,7.314,8.448,14.626a.9.9,0,0,0,.18.173.869.869,0,0,0,.081-.25C1383.715-792.221,1383.714-793.414,1383.714-794.607Z"/></g></svg>