<svg id="instagram" xmlns="http://www.w3.org/2000/svg" width="20.015" height="20.015" viewBox="0 0 20.015 20.015">
  <path id="Path_44" data-name="Path 44" d="M14.6,0H5.417A5.424,5.424,0,0,0,0,5.418V14.6a5.424,5.424,0,0,0,5.418,5.418H14.6A5.424,5.424,0,0,0,20.014,14.6V5.418A5.424,5.424,0,0,0,14.6,0Zm-4.59,15.48a5.473,5.473,0,1,1,5.473-5.473A5.479,5.479,0,0,1,10.007,15.48Zm5.6-9.655a1.617,1.617,0,1,1,1.617-1.617A1.619,1.619,0,0,1,15.61,5.825Zm0,0" transform="translate(0.001 0)" fill="#fff"/>
  <path id="Path_45" data-name="Path 45" d="M150.319,146.02a4.3,4.3,0,1,0,4.3,4.3A4.3,4.3,0,0,0,150.319,146.02Zm0,0" transform="translate(-140.312 -140.312)" fill="#fff"/>
  <path id="Path_46" data-name="Path 46" d="M388.436,96.3a.444.444,0,1,0,.444.444A.444.444,0,0,0,388.436,96.3Zm0,0" transform="translate(-372.825 -92.536)" fill="#fff"/>
</svg>
