<?xml version="1.0" standalone="no"?>
<!DOCTYPE svg PUBLIC "-//W3C//DTD SVG 20010904//EN"
 "http://www.w3.org/TR/2001/REC-SVG-20010904/DTD/svg10.dtd">
<svg version="1.0" xmlns="http://www.w3.org/2000/svg"
 width="258.000000pt" height="258.000000pt" viewBox="0 0 3400.000000 3400.000000"
 preserveAspectRatio="xMidYMid meet">

<g transform="translate(0.000000,3400.000000) scale(0.100000,-0.100000)"
fill="#127DCF" stroke="none">
<path d="M19698 25447 c-775 -394 -1487 -1066 -1943 -1833 -45 -76 -52 -83
-104 -104 -102 -41 -344 -168 -460 -240 -816 -507 -1518 -1442 -2010 -2678
-105 -263 -269 -747 -258 -759 3 -2 85 40 184 95 424 237 740 372 867 372 80
0 80 -1 -23 -200 -51 -100 -92 -183 -90 -184 2 -2 130 -67 283 -146 266 -136
278 -144 259 -159 -11 -9 -605 -468 -1321 -1021 -715 -553 -1300 -1006 -1298
-1007 1 -2 274 54 605 123 331 69 605 123 608 120 5 -4 -607 -2899 -637 -3015
-5 -18 -8 -32 -6 -30 2 2 465 548 1029 1212 564 665 1029 1209 1033 1210 5 1
52 -206 104 -460 53 -255 99 -465 101 -467 2 -2 143 650 314 1450 170 800 312
1459 316 1466 4 7 75 -25 205 -92 188 -98 198 -102 211 -84 8 11 51 91 95 179
44 88 82 161 83 163 9 10 48 -24 69 -61 76 -128 160 -539 207 -1004 l13 -123
124 168 c444 598 814 1267 1041 1883 301 817 383 1612 235 2277 l-25 113 41
97 c198 460 326 974 382 1532 19 192 16 661 -6 860 -23 210 -58 412 -72 417
-6 2 -77 -30 -156 -70z m-392 -912 c86 -25 150 -111 174 -233 16 -78 8 -278
-15 -382 -29 -132 -87 -291 -161 -440 -111 -223 -223 -380 -368 -517 -282
-269 -537 -276 -622 -17 -28 88 -26 293 4 432 118 530 518 1078 847 1158 67
17 83 16 141 -1z"/>
<path d="M10520 22290 l-1725 -2169 -3 -180 -2 -179 1701 -1928 c936 -1061
1714 -1942 1730 -1959 l29 -30 0 562 0 562 -1342 1482 c-972 1072 -1344 1489
-1346 1508 -2 21 232 319 1343 1707 l1345 1682 -2 556 -3 556 -1725 -2170z"/>
<path d="M21770 23896 l0 -554 1350 -1682 c840 -1048 1350 -1691 1350 -1704 0
-14 -461 -526 -1350 -1501 l-1350 -1480 0 -564 c0 -310 2 -562 4 -560 2 2 779
882 1725 1954 l1721 1950 -2 186 -3 187 -1718 2161 c-945 1189 -1720 2161
-1723 2161 -2 0 -4 -249 -4 -554z"/>
<path d="M3247 11388 c-3 -915 -8 -1680 -12 -1700 l-7 -38 185 0 185 0 7 195
c4 107 11 195 15 195 5 0 19 -19 33 -42 214 -362 701 -497 1135 -316 160 66
339 215 437 363 90 137 155 297 192 480 14 72 18 137 18 320 0 205 -3 242 -23
334 -104 463 -383 760 -779 831 -116 21 -347 8 -458 -25 -208 -61 -355 -171
-487 -365 -16 -24 -17 15 -17 703 l-1 727 -209 0 -210 0 -4 -1662z m1228 287
c247 -52 434 -253 511 -551 32 -120 43 -340 25 -476 -59 -444 -314 -708 -686
-708 -288 0 -529 173 -627 450 -21 61 -23 83 -26 371 -3 281 -2 313 17 392 88
371 428 597 786 522z"/>
<path d="M19577 11383 c-3 -918 -8 -1683 -12 -1700 l-7 -33 185 0 184 0 7 168
c4 92 9 180 12 195 6 28 7 27 49 -35 121 -181 275 -290 484 -345 134 -35 344
-38 474 -5 354 88 615 334 741 699 105 306 109 693 9 998 -111 341 -344 577
-658 667 -70 20 -102 23 -255 23 -150 -1 -187 -4 -260 -23 -191 -52 -351 -158
-461 -306 l-64 -85 -3 724 -2 725 -209 0 -210 0 -4 -1667z m1245 288 c316 -81
509 -372 525 -791 19 -491 -175 -831 -525 -921 -225 -57 -467 7 -626 166 -80
80 -125 150 -164 257 l-27 73 0 330 c0 318 1 333 23 405 78 248 260 429 488
484 87 21 217 20 306 -3z"/>
<path d="M30340 12358 l0 -693 -34 51 c-81 120 -257 235 -431 281 -105 27
-380 25 -487 -5 -321 -88 -578 -332 -699 -663 -61 -167 -80 -275 -86 -489 -8
-289 26 -468 127 -676 164 -338 450 -536 810 -560 237 -15 493 70 655 217 64
59 136 149 161 203 10 20 21 36 25 36 3 0 9 -73 13 -162 4 -90 9 -182 13 -205
l5 -43 185 0 185 0 -6 68 c-4 37 -9 802 -12 1700 l-5 1632 -210 0 -209 0 0
-692z m-475 -683 c223 -57 407 -243 459 -465 23 -97 23 -666 0 -759 -80 -322
-346 -527 -659 -507 -244 15 -425 138 -541 368 -127 252 -137 643 -25 934 85
221 255 379 458 428 79 19 235 20 308 1z"/>
<path d="M7725 12883 c-87 -19 -151 -66 -187 -137 -26 -51 -35 -150 -18 -202
36 -110 127 -178 240 -178 85 -1 148 24 198 78 55 59 76 120 70 200 -10 120
-78 203 -190 233 -53 13 -76 14 -113 6z"/>
<path d="M14900 12043 c-210 -22 -424 -98 -585 -206 -84 -57 -216 -187 -275
-273 -148 -214 -214 -447 -214 -754 0 -189 13 -283 60 -427 128 -398 461 -683
884 -757 488 -85 966 72 1235 407 223 276 314 718 230 1117 -117 556 -574 906
-1175 898 -69 -1 -141 -3 -160 -5z m315 -547 c163 -74 269 -278 294 -562 44
-500 -189 -860 -521 -805 -93 15 -176 60 -239 129 -237 260 -235 896 5 1146
53 55 126 99 193 116 21 5 77 8 124 6 67 -3 99 -9 144 -30z"/>
<path d="M17926 12035 c-93 -18 -207 -62 -290 -112 -69 -42 -190 -154 -231
-213 -15 -22 -31 -40 -35 -40 -4 0 -12 57 -19 128 -7 70 -15 144 -18 165 l-6
37 -314 0 -315 0 6 -87 c3 -49 9 -577 12 -1175 l6 -1088 364 0 363 0 3 753 3
752 32 66 c46 94 110 162 191 201 62 31 74 33 167 33 89 0 106 -3 157 -28 103
-50 165 -145 193 -292 12 -63 15 -203 15 -781 l0 -704 365 0 365 0 0 758 c0
463 -4 790 -10 842 -17 133 -56 266 -112 380 -45 91 -64 117 -143 196 -78 78
-104 98 -185 137 -52 25 -124 53 -160 62 -92 23 -304 28 -404 10z"/>
<path d="M6850 12004 c-112 -29 -198 -82 -301 -184 -84 -84 -101 -107 -145
-197 -27 -56 -52 -102 -55 -103 -7 0 -19 217 -19 353 l0 97 -186 0 -187 0 7
-122 c3 -68 9 -590 12 -1160 l7 -1038 203 0 204 0 0 628 c0 345 5 670 10 722
43 408 289 651 633 625 l87 -7 0 195 c0 168 -2 196 -16 201 -29 11 -199 5
-254 -10z"/>
<path d="M9650 12005 c-184 -38 -343 -126 -467 -259 -34 -36 -74 -87 -89 -112
-36 -61 -39 -51 -48 146 -4 85 -10 163 -12 173 -5 15 -23 17 -191 17 l-185 0
7 -37 c3 -21 9 -543 12 -1160 l5 -1123 208 0 209 0 3 768 c3 761 3 767 25 825
42 111 87 181 163 258 124 125 286 188 450 175 241 -20 389 -152 462 -413 22
-77 22 -91 26 -845 l3 -768 210 0 210 0 -4 798 c-3 783 -4 799 -26 896 -82
365 -296 593 -620 662 -82 17 -264 17 -351 -1z"/>
<path d="M12030 12005 c-458 -92 -790 -490 -849 -1018 -46 -413 60 -781 298
-1030 132 -138 280 -225 457 -269 126 -30 323 -30 449 1 184 45 354 153 459
293 l51 67 3 -172 c5 -268 -19 -404 -101 -561 -58 -113 -142 -194 -260 -250
-127 -61 -220 -80 -387 -80 -217 1 -411 46 -591 137 l-87 43 -47 -150 c-26
-83 -50 -156 -52 -163 -3 -7 28 -28 74 -51 306 -154 781 -190 1136 -87 372
107 595 351 683 745 44 201 46 238 53 1385 3 605 10 1106 14 1113 6 9 -32 12
-181 12 l-189 0 -9 -176 -9 -176 -49 71 c-114 168 -283 276 -494 317 -90 17
-284 17 -372 -1z m336 -316 c194 -27 343 -127 444 -299 78 -132 83 -160 88
-477 3 -180 0 -313 -8 -369 -47 -359 -348 -597 -698 -554 -224 28 -392 151
-498 365 -147 298 -131 735 37 1023 51 85 171 201 254 244 77 40 131 57 215
68 81 11 82 11 166 -1z"/>
<path d="M23077 12005 c-524 -92 -866 -482 -927 -1055 -15 -136 -7 -303 20
-441 89 -462 398 -787 840 -882 133 -29 357 -29 490 0 459 99 780 424 874 883
66 324 30 659 -100 925 -135 278 -374 471 -682 552 -82 21 -124 26 -267 29
-114 2 -196 -1 -248 -11z m302 -306 c279 -45 476 -250 560 -580 104 -409 -11
-850 -275 -1060 -76 -60 -186 -113 -272 -129 -140 -28 -312 2 -438 75 -74 42
-202 178 -251 265 -201 358 -167 905 74 1200 150 183 370 267 602 229z"/>
<path d="M25447 12005 c-180 -29 -364 -90 -482 -160 l-43 -25 44 -127 c25 -71
47 -134 49 -141 3 -8 19 -4 52 17 132 81 313 130 508 138 122 5 151 3 224 -16
98 -24 158 -57 217 -118 81 -83 133 -232 134 -385 l0 -58 -74 0 c-115 0 -321
-19 -441 -40 -303 -53 -517 -151 -671 -305 -68 -67 -90 -98 -127 -176 -54
-112 -77 -213 -77 -341 0 -184 64 -342 185 -463 115 -114 237 -173 412 -196
284 -38 606 83 778 291 20 25 40 46 44 48 4 1 15 -65 25 -148 l19 -150 188 0
189 0 -1 23 c0 12 -5 47 -10 77 -6 30 -14 384 -19 785 -8 776 -10 797 -60 952
-67 203 -190 353 -360 437 -147 72 -222 88 -435 92 -124 2 -208 -1 -268 -11z
m713 -1379 c0 -246 -7 -294 -55 -393 -94 -192 -289 -312 -510 -316 -114 -2
-181 15 -255 64 -109 74 -155 174 -154 339 0 85 5 116 23 163 90 229 379 349
854 356 l97 1 0 -214z"/>
<path d="M28112 12001 c-195 -56 -381 -227 -461 -425 -13 -31 -27 -56 -31 -56
-7 0 -20 228 -20 368 l0 82 -186 0 -186 0 6 -102 c3 -57 9 -579 12 -1160 l7
-1058 203 0 202 0 5 693 c4 611 6 701 21 767 80 344 312 538 619 516 l87 -7 0
195 c0 168 -2 195 -16 200 -33 13 -200 4 -262 -13z"/>
<path d="M7560 10810 l0 -1160 210 0 210 0 0 1160 0 1160 -210 0 -210 0 0
-1160z"/>
</g>
</svg>
