<svg xmlns="http://www.w3.org/2000/svg" width="25.434" height="25.335" viewBox="0 0 25.434 25.335">
  <g id="web-development" transform="translate(0 -1)">
    <path id="Path_118" data-name="Path 118" d="M23.2,1H2.235A2.238,2.238,0,0,0,0,3.235V24.1a2.238,2.238,0,0,0,2.235,2.235H23.2A2.238,2.238,0,0,0,25.434,24.1V3.235A2.238,2.238,0,0,0,23.2,1ZM2.235,2.49H23.2a.746.746,0,0,1,.745.745V6.961H1.49V3.235A.746.746,0,0,1,2.235,2.49ZM23.2,24.845H2.235A.746.746,0,0,1,1.49,24.1V8.451H23.944V24.1A.746.746,0,0,1,23.2,24.845Z" fill="#fff"/>
    <path id="Path_119" data-name="Path 119" d="M201.506,196.057a.745.745,0,0,0-.978.391l-4.471,10.432a.745.745,0,0,0,1.37.587l4.471-10.432A.745.745,0,0,0,201.506,196.057Z" transform="translate(-186.26 -185.31)" fill="#fff"/>
    <path id="Path_120" data-name="Path 120" d="M81.056,241.279a.745.745,0,0,0-1.047-.116l-3.726,2.981a.745.745,0,0,0,0,1.164l3.726,2.981a.745.745,0,1,0,.931-1.164l-3-2.4,3-2.4A.745.745,0,0,0,81.056,241.279Z" transform="translate(-72.228 -228.077)" fill="#fff"/>
    <path id="Path_121" data-name="Path 121" d="M335.936,244.143l-3.726-2.981a.745.745,0,1,0-.931,1.164l3,2.4-3,2.4a.745.745,0,1,0,.931,1.164l3.726-2.981A.745.745,0,0,0,335.936,244.143Z" transform="translate(-314.556 -228.077)" fill="#fff"/>
    <circle id="Ellipse_11" data-name="Ellipse 11" cx="1" cy="1" r="1" transform="translate(2.717 3.668)" fill="#fff"/>
    <ellipse id="Ellipse_12" data-name="Ellipse 12" cx="0.5" cy="1" rx="0.5" ry="1" transform="translate(6.717 3.668)" fill="#fff"/>
    <circle id="Ellipse_13" data-name="Ellipse 13" cx="1" cy="1" r="1" transform="translate(8.717 3.668)" fill="#fff"/>
    <path id="Path_122" data-name="Path 122" d="M331.745,62.49h4.471a.745.745,0,1,0,0-1.49h-4.471a.745.745,0,0,0,0,1.49Z" transform="translate(-314.557 -57.019)" fill="#fff"/>
  </g>
</svg>
