<svg xmlns="http://www.w3.org/2000/svg" width="25.13" height="33.47" viewBox="0 0 25.13 33.47">
  <g id="bell" transform="translate(-23.898 0)">
    <g id="Group_45" data-name="Group 45" transform="translate(23.898 0)">
      <path id="Path_111" data-name="Path 111" d="M83.9,139.056c0-1.488.005-2.977-.069-4.463a.44.44,0,0,0-.32-.421q-.209-.044-.417-.093c-.343-.137-.575.23-.513.522,0,0,0,.007-.006.011a13.887,13.887,0,0,0-.284,3.728c0,.295-.008.59-.011.886a2.349,2.349,0,0,0-1.8,2.484,2.645,2.645,0,0,0,2.614,2.418,2.893,2.893,0,0,0,2.529-2.1A2.414,2.414,0,0,0,83.9,139.056Z" transform="translate(-70.602 -110.66)" fill="#fff"/>
      <path id="Path_112" data-name="Path 112" d="M46.945,15.5a8.689,8.689,0,0,1-3.569-2.1,34.347,34.347,0,0,1-2.9-4.212,13.186,13.186,0,0,0-6.115-5.2,7.123,7.123,0,0,0-3.679-.215,1.893,1.893,0,0,0-.505.111,9.232,9.232,0,0,0-1.111.352l-.009-.049a5.886,5.886,0,0,0-.524-1.5c-.07-.147-.145-.293-.226-.437s-.153-.277-.232-.411C27.672,1.144,26.982.045,26.07,0c-1.06-.05-1.441,1.334-1.364,2.166.127,1.357,1.3,2.324,2.085,3.359-4.17,3.285-3.343,8.71-.595,12.629a12.3,12.3,0,0,1,2.121,4.184,13.629,13.629,0,0,1-.054,4.242c-.1,1.3.179,3.106,1.551,3.175a4.266,4.266,0,0,0,3.521-.165c.268-.141.158-.626-.16-.592a8.365,8.365,0,0,1-2.84-.034c-1.666-.425,1.134-3.064,1.628-3.514a56.98,56.98,0,0,1,7.232-5.233A18.009,18.009,0,0,1,44.286,17.8c1.093-.3,4.166-.743,3.224,1.257A14.83,14.83,0,0,1,43.9,23.114a27.167,27.167,0,0,1-4.884,3.475.522.522,0,0,0,.527.9,29.774,29.774,0,0,0,6.239-4.709c.924-.907,2.78-2.556,3.005-4.114C49.512,17.055,48.507,16.094,46.945,15.5ZM27.918,4.423a3.023,3.023,0,0,1-1.8-1.345,1.655,1.655,0,0,1-.356-1.162c.055-.344.325-.532.624-.375a4.744,4.744,0,0,1,1.756,2.983A.428.428,0,0,0,27.918,4.423Zm11.915,5.645c.188.268.366.538.543.808,0,0,0,.008,0,.012,0,.025,0,.049,0,.073-.273-.453-.547-.888-.829-1.3Q39.69,9.865,39.833,10.068Zm-6-4.282.03.016a17,17,0,0,1,2.518,1.75c1.116,1.345,2.189,2.726,3.3,4.076a15.061,15.061,0,0,0,1.6,2.408c.082.095.167.185.254.273a6.308,6.308,0,0,0-.846.483c-1.006.681-1.908-.576-2.565-1.242a22.1,22.1,0,0,1-2.742-3.408,25.3,25.3,0,0,1-1.39-2.4,7.032,7.032,0,0,1-.548-1.417C33.331,5.871,33.536,5.8,33.835,5.786Z" transform="translate(-23.898 0)" fill="#fff"/>
    </g>
  </g>
</svg>
