<svg xmlns="http://www.w3.org/2000/svg" width="30.265" height="32.609" viewBox="0 0 30.265 32.609">
  <g id="computer" transform="translate(-18.401)">
    <path id="Path_113" data-name="Path 113" d="M168.417,75.676a5.957,5.957,0,1,0-5.958-5.956A5.963,5.963,0,0,0,168.417,75.676Zm0-10.64a4.683,4.683,0,1,1-4.684,4.684A4.689,4.689,0,0,1,168.417,65.036Z" transform="translate(-134.883 -59.701)" fill="#fff"/>
    <path id="Path_114" data-name="Path 114" d="M246.637,111.06a.637.637,0,0,0,.637-.637v-2.277a.637.637,0,1,0-1.274,0v2.277A.637.637,0,0,0,246.637,111.06Z" transform="translate(-213.103 -100.662)" fill="#fff"/>
    <path id="Path_115" data-name="Path 115" d="M246.637,188.318a.637.637,0,1,0-.637-.638v0A.636.636,0,0,0,246.637,188.318Z" transform="translate(-213.103 -175.13)" fill="#fff"/>
    <path id="Path_116" data-name="Path 116" d="M46.728,8.346H43.4a1.378,1.378,0,0,0-1.22-.74H41.9a8.624,8.624,0,0,0-.744-1.794l.2-.2a1.376,1.376,0,0,0,0-1.948L39.885,2.2a1.379,1.379,0,0,0-1.946,0l-.2.2a8.582,8.582,0,0,0-1.793-.744V1.377A1.378,1.378,0,0,0,34.57,0H32.5a1.378,1.378,0,0,0-1.377,1.377v.279a8.58,8.58,0,0,0-1.793.744l-.2-.2a1.379,1.379,0,0,0-1.947,0L25.72,3.666a1.376,1.376,0,0,0,0,1.947l.2.2a8.621,8.621,0,0,0-.744,1.794h-.279a1.378,1.378,0,0,0-1.22.74H20.324A1.933,1.933,0,0,0,18.4,10.284V24.825a1.94,1.94,0,0,0,1.938,1.938H29.21l-.949,2.021h-.728A1.916,1.916,0,0,0,25.62,30.7v1.275a.637.637,0,0,0,.637.637H40.811a.637.637,0,0,0,.637-.637V30.7a1.916,1.916,0,0,0-1.914-1.914h-.728l-.949-2.021h8.871a1.94,1.94,0,0,0,1.938-1.938V10.284a1.94,1.94,0,0,0-1.938-1.938Zm-21.939.637a.106.106,0,0,1,.1-.1h.774a.637.637,0,0,0,.621-.5,7.366,7.366,0,0,1,.966-2.33.637.637,0,0,0-.087-.79l-.549-.55a.1.1,0,0,1-.029-.071.1.1,0,0,1,.031-.073L28.083,3.1a.105.105,0,0,1,.145,0l.548.548a.637.637,0,0,0,.792.087A7.323,7.323,0,0,1,31.9,2.772a.637.637,0,0,0,.5-.621V1.377a.1.1,0,0,1,.1-.1H34.57a.1.1,0,0,1,.1.1V2.15a.637.637,0,0,0,.5.621,7.324,7.324,0,0,1,2.329.966.637.637,0,0,0,.792-.087l.548-.548a.105.105,0,0,1,.145,0L40.45,4.57a.1.1,0,0,1,.029.071.1.1,0,0,1-.031.073l-.546.548a.637.637,0,0,0-.087.79,7.364,7.364,0,0,1,.966,2.33.637.637,0,0,0,.621.5h.774a.106.106,0,0,1,.1.1v2.071a.105.105,0,0,1-.1.1H41.4a.637.637,0,0,0-.621.5,7.37,7.37,0,0,1-.966,2.332.637.637,0,0,0,.088.791l.546.546a.1.1,0,0,1,0,.147l-1.464,1.464a.105.105,0,0,1-.145,0l-.548-.548A.637.637,0,0,0,37.5,16.3a7.323,7.323,0,0,1-2.329.966.637.637,0,0,0-.5.621v.774a.1.1,0,0,1-.1.1H32.5a.1.1,0,0,1-.1-.1v-.774a.637.637,0,0,0-.5-.621,7.324,7.324,0,0,1-2.329-.966.637.637,0,0,0-.792.087l-.548.548a.105.105,0,0,1-.145,0L26.619,15.47a.1.1,0,0,1,0-.147l.546-.546a.637.637,0,0,0,.088-.791,7.368,7.368,0,0,1-.966-2.332.637.637,0,0,0-.621-.5h-.774a.105.105,0,0,1-.1-.1ZM40.174,30.7v.638H26.894V30.7a.641.641,0,0,1,.64-.64h12A.641.641,0,0,1,40.174,30.7ZM37.4,28.784H29.668l.949-2.021H36.45Zm9.329-3.3H20.339a.665.665,0,0,1-.664-.664V23.74H37.183a.637.637,0,0,0,0-1.274H19.675V10.284a.658.658,0,0,1,.649-.664h3.191v1.434a1.378,1.378,0,0,0,1.377,1.377h.279a8.628,8.628,0,0,0,.744,1.795l-.2.2a1.379,1.379,0,0,0,0,1.948l1.464,1.464a1.379,1.379,0,0,0,1.946,0l.2-.2a8.583,8.583,0,0,0,1.793.744v.279A1.378,1.378,0,0,0,32.5,20.036H34.57a1.378,1.378,0,0,0,1.377-1.377V18.38a8.58,8.58,0,0,0,1.793-.744l.2.2a1.379,1.379,0,0,0,1.946,0l1.464-1.464a1.379,1.379,0,0,0,0-1.948l-.2-.2A8.629,8.629,0,0,0,41.9,12.43h.279a1.378,1.378,0,0,0,1.377-1.377V9.619h3.176a.665.665,0,0,1,.664.664V22.466H43.131a.637.637,0,0,0,0,1.274h4.261v1.085a.665.665,0,0,1-.664.664Z" fill="#fff"/>
    <path id="Path_117" data-name="Path 117" d="M350.635,352.742a.637.637,0,0,0,0,1.274h0a.637.637,0,1,0,0-1.274Z" transform="translate(-310.478 -330.276)" fill="#fff"/>
  </g>
</svg>
