<svg xmlns="http://www.w3.org/2000/svg" width="32.252" height="32.026" viewBox="0 0 32.252 32.026"><defs><style>.a{fill:#ea2845;}</style></defs><g transform="translate(-574 322.28)"><path class="a" d="M574-304.614v-.315a.384.384,0,0,0,.044-.082,2.423,2.423,0,0,1,2.172-1.887,4.066,4.066,0,0,0,2.323-.943c.551-.468,1.084-.962,1.586-1.482a6.469,6.469,0,0,1,2.82-1.71,15.08,15.08,0,0,1,7.439-.222,11.232,11.232,0,0,1,3.047,1.043c.015-.029.024-.038.025-.047a.267.267,0,0,0,0-.092,2.068,2.068,0,0,1,1.02-2.6c.045-.027.085-.062.128-.091a2,2,0,0,0,1.046-1.721c0-.015.024-.031.034-.043a5.629,5.629,0,0,1,3.882,5.465,5.383,5.383,0,0,1-1.485,3.742,6,6,0,0,1-3.677,1.767,5.63,5.63,0,0,0,3.909-.26,5.854,5.854,0,0,0,3.432-4.842c.548.737,1.063,1.384,1.53,2.065a16.382,16.382,0,0,1,2.756,6.658c.1.607.149,1.223.222,1.835v1.008c-.02.154-.047.307-.058.461a13.854,13.854,0,0,1-2.409,6.99c-.061.089-.13.171-.207.272,0-.662.029-1.281-.008-1.9s-.142-1.233-.216-1.849l-.1,0a12.878,12.878,0,0,1-1.85,4.893c-.949,1.458-3.009,3.495-3.73,3.688.233-.4.473-.776.688-1.171a13.786,13.786,0,0,0,.615-1.238,11.716,11.716,0,0,0,.437-1.277c.125-.43.214-.871.318-1.308a13.35,13.35,0,0,1-10.379,6.551c.862-.594,1.76-1.168,2.608-1.81a12.6,12.6,0,0,0,2.272-2.357c-.694.228-1.326.446-1.965.644a5.64,5.64,0,0,1-2.025.369,7.925,7.925,0,0,0,3.4-8.2c-.807,3.016-2.444,5.342-5.645,6.228a7.653,7.653,0,0,1-6.114-.759l0-.1,1.063-.287c-.09-.077-.154-.129-.214-.185a4.027,4.027,0,0,1-1.323-3.112,2.2,2.2,0,0,1,1.866-2.023c.91-.106,1.459.327,1.048,1.263a1.186,1.186,0,0,0,.305,1.384,2.38,2.38,0,0,0,1.434.647.413.413,0,0,0,.49-.225c.293-.562.594-1.119.914-1.72l.086,1.483a4.179,4.179,0,0,0,1.124-1.486c.243-.46.372-.508.861-.3a2.34,2.34,0,0,1,1.035.918,9.422,9.422,0,0,0-.233-1.334,9.68,9.68,0,0,0-10.878-6.991,1.377,1.377,0,0,0-1.148.719,2,2,0,0,1-.281.379,3.98,3.98,0,0,1-.331.294V-301.3l-.695.931-.146-.045c0-.275.015-.551-.008-.824a.374.374,0,0,0-.168-.271,2.456,2.456,0,0,1-1.365-1.483.5.5,0,0,0-.2-.258A2.04,2.04,0,0,1,574-304.614Z" transform="translate(0 -7.002)"/><path class="a" d="M866.645-317.86a1.8,1.8,0,0,1-.116-1.838,3.289,3.289,0,0,0,.286-.919,1.746,1.746,0,0,0-.744-1.549l.014-.1a5.2,5.2,0,0,1,.839.007,1.717,1.717,0,0,1,1.5,1.164.39.39,0,0,1-.126.475c-.2.165-.4.342-.606.5a2.263,2.263,0,0,0-1.006,2.138.482.482,0,0,1,0,.094C866.682-317.882,866.67-317.878,866.645-317.86Z" transform="translate(-273.673)"/></g></svg>