<svg xmlns="http://www.w3.org/2000/svg" width="31.872" height="31.876" viewBox="0 0 31.872 31.876"><path d="M-445.664,273.214c-.069.006-.287.028-.483.044a15.974,15.974,0,0,0-11.453,6.6,15.776,15.776,0,0,0-2.813,6.963,12.2,12.2,0,0,0-.143,2.321,12.2,12.2,0,0,0,.143,2.321,16,16,0,0,0,10.9,12.876,16.852,16.852,0,0,0,3.365.7,29.347,29.347,0,0,0,3.053,0,16.09,16.09,0,0,0,5.742-1.679c.274-.14.327-.178.29-.209s-1.193-1.586-2.6-3.48l-2.548-3.443-3.193-4.726c-1.757-2.6-3.2-4.723-3.215-4.723s-.025,2.1-.031,4.661c-.009,4.489-.012,4.67-.069,4.776a.566.566,0,0,1-.274.283c-.1.05-.187.059-.657.059h-.539l-.143-.09a.583.583,0,0,1-.209-.227l-.065-.14.006-6.247.009-6.25.1-.122a.855.855,0,0,1,.231-.19c.128-.062.178-.069.717-.069.636,0,.742.025.907.206.047.05,1.776,2.654,3.845,5.792s4.9,7.421,6.287,9.524l2.524,3.823.128-.084a16.36,16.36,0,0,0,3.274-2.873,15.865,15.865,0,0,0,3.751-8.147,12.2,12.2,0,0,0,.143-2.321,12.2,12.2,0,0,0-.143-2.321,16,16,0,0,0-10.9-12.876,16.724,16.724,0,0,0-3.318-.695c-.3-.031-2.358-.065-2.617-.041Zm6.524,9.639a.629.629,0,0,1,.315.368c.025.081.031,1.813.025,5.717l-.009,5.6-.988-1.514-.991-1.514V287.44c0-2.633.012-4.112.031-4.184a.636.636,0,0,1,.309-.393c.128-.065.174-.072.664-.072.461,0,.542.006.645.062Z" transform="translate(460.556 -273.206)"/></svg>