<svg xmlns="http://www.w3.org/2000/svg" width="40.201" height="26.378" viewBox="0 0 40.201 26.378"><defs><style>.a{fill:#3b8739;}.b{fill:#333;}.c{fill:#66a060;}.d{fill:#6da75d;}.e{fill:#55a344;}.f{fill:#639d57;}</style></defs><g transform="translate(0 -99.579)"><path class="a" d="M136.97,184.565v-5.23l-4.529-2.615-4.529,2.615v5.23l4.529,2.615Z" transform="translate(-117.862 -71.081)"/><path class="b" d="M417.1,183.774l2.951,1.7-2.951,1.7-4.529-2.615v-5.23l4.529-2.615,2.745,1.585a20,20,0,0,1,.511,3.586l-1.678.969v-1.822l-1.578-.91-1.578.91v1.822Z" transform="translate(-380.151 -71.083)"/><path class="c" d="M460.771,231.883v-1.015l-.879-.508-.879.508v1.015l.879.508Z" transform="translate(-422.948 -120.505)"/><path class="b" d="M7.911,179.338v6.9l-3.02-1.723v-3.535L3.383,180.1l-1.508.871v3.535l-1.715.979a20.3,20.3,0,0,1,.364-7.116l2.86-1.651Z" transform="translate(0 -71.083)"/><rect class="d" width="9.058" height="5.23" transform="matrix(0.5, 0.866, -0.866, 0.5, 14.579, 105.64)"/><path class="e" d="M127.912,215.23l1.555-2.536L127.912,210Z" transform="translate(-117.862 -101.745)"/><path class="f" d="M188.572,181.95l1.51-2.615-4.529-2.615Z" transform="translate(-170.974 -71.081)"/><path class="b" d="M275.631,99.579v6.938l-1.518-.877-4.529,2.615v5.23l4.529,2.615,4.529-2.615V101.191Zm-.008,12.162-1.51.872-1.51-.872V110l1.51-.872,1.51.872Z" transform="translate(-248.402 0)"/><g transform="translate(15.3 115.216)"><path class="c" d="M245.665,341.594a.881.881,0,0,0-.907-.764c-.818,0-1.378.107-1.378.56s1.591.453,2.2.631a1.094,1.094,0,0,1,.871,1.458c-.267.818-1.084.907-2.347.907a1.467,1.467,0,0,1-1.547-1.458h.711s-.089.64.747.747,1.634.167,1.742-.48c.142-.853-2.7-.427-2.951-1.262-.21-.706-.089-1.635,1.333-1.778s2.2.486,2.2,1.422Z" transform="translate(-238.796 -336.871)"/><path class="c" d="M194.722,306.656l1.572.908a1.185,1.185,0,0,0,1.777-1.026V302.02h-.641v4.339a.647.647,0,0,1-.971.56l-1.1-.633v-4.631l4.011-2.315,4.011,2.315v4.631l-4.011,2.315-1.155-.667-.754.3,1.91,1.1,4.651-2.685v-5.37l-4.651-2.685-4.651,2.685v5.371Z" transform="translate(-194.722 -298.6)"/></g></g></svg>