<svg xmlns="http://www.w3.org/2000/svg" width="27.335" height="27.337" viewBox="0 0 27.335 27.337">
  <path id="layers" d="M27.245,12.713l-4.39-2.195,4.39-2.2a1.069,1.069,0,0,0,0-1.91l-12.6-6.3a1.069,1.069,0,0,0-.955,0l-12.6,6.3a1.069,1.069,0,0,0,0,1.91l4.39,2.2-4.39,2.195a1.069,1.069,0,0,0,0,1.91l4.39,2.2-4.39,2.195a1.069,1.069,0,0,0,0,1.91l12.6,6.3a1.068,1.068,0,0,0,.955,0l12.6-6.3a1.069,1.069,0,0,0,0-1.91l-4.39-2.195,4.39-2.2a1.069,1.069,0,0,0,0-1.91ZM14.167,2.261,24.38,7.368,14.167,12.474,3.954,7.368ZM24.38,19.969,14.167,25.075,3.954,19.969l3.912-1.956,5.823,2.911a1.068,1.068,0,0,0,.955,0l5.823-2.911ZM14.167,18.775,3.954,13.668l3.912-1.956,5.823,2.911a1.068,1.068,0,0,0,.955,0l5.823-2.911,3.912,1.956Zm0,0" transform="translate(-0.499 0)" fill="#fff"/>
</svg>
