<svg xmlns="http://www.w3.org/2000/svg" width="26.523" height="29.084" viewBox="0 0 26.523 29.084"><defs><style>.a{fill:#61dafb;}</style></defs><path class="a" d="M33.5,14.542c.242-.237.473-.475.691-.713,2.085-2.282,2.814-4.367,2.05-5.87-.439-.865-1.563-1.9-4.423-1.9a17.17,17.17,0,0,0-3.606.434,20.083,20.083,0,0,0-.631-2.01C26.485,1.593,24.956,0,23.27,0s-3.215,1.593-4.306,4.486a20.013,20.013,0,0,0-.631,2.01,17.17,17.17,0,0,0-3.606-.434c-2.86,0-3.984,1.032-4.423,1.9-.763,1.5-.035,3.588,2.05,5.87.217.238.449.476.691.713-.242.237-.473.475-.691.713-2.085,2.282-2.814,4.367-2.05,5.87.439.865,1.563,1.9,4.423,1.9a17.169,17.169,0,0,0,3.606-.434,20.08,20.08,0,0,0,.631,2.01c1.091,2.893,2.62,4.486,4.306,4.486s3.215-1.593,4.306-4.486a20.005,20.005,0,0,0,.631-2.01,17.179,17.179,0,0,0,3.606.434h0c2.859,0,3.983-1.032,4.422-1.9.763-1.5.035-3.588-2.05-5.87C33.969,15.017,33.737,14.779,33.5,14.542Zm-1.682-7.2c1.725,0,2.89.425,3.282,1.2.5.98-.178,2.594-1.854,4.428-.215.236-.445.471-.685.706a29.4,29.4,0,0,0-3.569-2.639A30.825,30.825,0,0,0,28.5,7.747,15.826,15.826,0,0,1,31.814,7.341Zm-6.46,11.306c-.692.351-1.39.676-2.084.974-.695-.3-1.392-.623-2.084-.974-.838-.425-1.645-.876-2.415-1.344-.068-.881-.1-1.8-.1-2.761s.037-1.88.1-2.761c.77-.468,1.577-.919,2.415-1.344.692-.351,1.39-.676,2.084-.974.695.3,1.392.623,2.084.974.838.425,1.645.876,2.415,1.344.068.881.1,1.8.1,2.761s-.037,1.88-.1,2.761C27,17.771,26.192,18.222,25.354,18.647Zm2.255.235c-.1.754-.215,1.472-.354,2.147-.758-.208-1.538-.459-2.33-.75.336-.159.673-.321,1.009-.492Q26.792,19.352,27.609,18.882Zm-5.993,1.4c-.793.291-1.573.542-2.33.75-.139-.676-.258-1.393-.354-2.147q.816.468,1.675.906C20.943,19.958,21.279,20.121,21.615,20.279Zm-4.179-3.834a27.067,27.067,0,0,1-2.5-1.9,27.129,27.129,0,0,1,2.5-1.9q-.047.939-.049,1.9T17.436,16.445Zm1.5-6.243c.1-.754.215-1.472.354-2.147.758.208,1.538.459,2.33.75-.336.159-.673.321-1.009.492Q19.748,9.733,18.931,10.2Zm5.993-1.4c.793-.291,1.573-.542,2.33-.75.139.676.258,1.393.354,2.147q-.816-.468-1.675-.906C25.6,9.126,25.261,8.964,24.925,8.805ZM29.1,12.639a27.066,27.066,0,0,1,2.5,1.9,27.129,27.129,0,0,1-2.5,1.9q.047-.939.049-1.9T29.1,12.639ZM23.27,1.279c1.347,0,2.788,2.084,3.692,5.523A31.447,31.447,0,0,0,23.27,8.074,31.416,31.416,0,0,0,19.578,6.8C20.482,3.363,21.923,1.279,23.27,1.279ZM13.3,12.966c-1.676-1.834-2.352-3.448-1.854-4.428.392-.772,1.558-1.2,3.282-1.2a15.825,15.825,0,0,1,3.315.406,30.863,30.863,0,0,0-.489,3.286,29.4,29.4,0,0,0-3.569,2.639C13.743,13.437,13.514,13.2,13.3,12.966Zm1.428,8.777c-1.725,0-2.89-.425-3.282-1.2-.5-.98.178-2.594,1.854-4.428.215-.236.445-.471.685-.706a29.4,29.4,0,0,0,3.569,2.639,30.826,30.826,0,0,0,.489,3.286A15.826,15.826,0,0,1,14.726,21.743ZM23.27,27.8c-1.347,0-2.788-2.084-3.692-5.523A31.425,31.425,0,0,0,23.27,21.01a31.408,31.408,0,0,0,3.692,1.272C26.058,25.721,24.617,27.8,23.27,27.8ZM35.1,20.547c-.392.772-1.557,1.2-3.281,1.2h0a15.834,15.834,0,0,1-3.315-.406,30.863,30.863,0,0,0,.489-3.286,29.4,29.4,0,0,0,3.569-2.639c.241.235.47.471.685.706C34.918,17.952,35.593,19.567,35.1,20.547Zm-9.014-6A2.812,2.812,0,1,1,23.27,11.73,2.815,2.815,0,0,1,26.082,14.542Z" transform="translate(-10.008)"/></svg>