<svg xmlns="http://www.w3.org/2000/svg" width="23.309" height="18.938" viewBox="0 0 23.309 18.938">
  <g id="twitter" transform="translate(0 -48)">
    <g id="Group_175" data-name="Group 175" transform="translate(0 48)">
      <path id="Path_470" data-name="Path 470" d="M23.309,50.242A9.963,9.963,0,0,1,20.556,51a4.752,4.752,0,0,0,2.1-2.641,9.55,9.55,0,0,1-3.03,1.157,4.778,4.778,0,0,0-8.266,3.268,4.92,4.92,0,0,0,.111,1.09,13.526,13.526,0,0,1-9.849-5,4.78,4.78,0,0,0,1.468,6.387,4.719,4.719,0,0,1-2.159-.589v.052a4.8,4.8,0,0,0,3.828,4.7,4.769,4.769,0,0,1-1.253.157,4.225,4.225,0,0,1-.9-.082,4.824,4.824,0,0,0,4.465,3.329A9.6,9.6,0,0,1,1.144,64.86,8.949,8.949,0,0,1,0,64.794a13.453,13.453,0,0,0,7.331,2.144,13.507,13.507,0,0,0,13.6-13.6c0-.211-.007-.415-.017-.618A9.533,9.533,0,0,0,23.309,50.242Z" transform="translate(0 -48)" fill="#fff"/>
    </g>
  </g>
</svg>
