<svg xmlns="http://www.w3.org/2000/svg" width="95.764" height="132.034" viewBox="0 0 95.764 132.034">
  <g id="Group_64" data-name="Group 64" transform="translate(-111.481 -59.017)">
    <g id="Group_62" data-name="Group 62" transform="translate(111.664 59.017)">
      <g id="Group_53" data-name="Group 53" transform="translate(0 19.624)">
        <path id="Path_237" data-name="Path 237" d="M154.055,118.225c-.247-.291-14.468-6.889-27.345,2.94-11.84,9.037-15.951,26.019-14.379,26.425,1.924.5,7.2-7.607,17.325-12.059,3.59-1.579,9.307,0,9.307,0Z" transform="translate(-112.009 -115.789)" fill="#127dcf"/>
        <path id="Path_238" data-name="Path 238" d="M180.15,135.532a22.476,22.476,0,0,0-5.2-.7c2.231-4.673,6.4-13.393,9.108-19.039a26.052,26.052,0,0,1,11.179,2.433Z" transform="translate(-153.195 -115.792)" opacity="0.1"/>
      </g>
      <g id="Group_54" data-name="Group 54" transform="translate(29.674 49.691)">
        <path id="Path_239" data-name="Path 239" d="M233.652,202.768c.247.291,4.429,15.4-7.373,26.5-10.852,10.2-28.278,11.48-28.421,9.863-.176-1.98,8.683-5.859,14.731-15.12,2.145-3.284,1.524-9.181,1.524-9.181Z" transform="translate(-197.855 -202.768)" fill="#127dcf"/>
        <path id="Path_240" data-name="Path 240" d="M264.656,214.273c-6.062,1.766-15.361,4.471-20.276,5.9a22.6,22.6,0,0,0,.177-5.345L264.1,202.768A26.1,26.1,0,0,1,264.656,214.273Z" transform="translate(-228.298 -202.768)" opacity="0.1"/>
      </g>
      <g id="Group_59" data-name="Group 59" transform="translate(18.473)">
        <path id="Path_241" data-name="Path 241" d="M179.341,127.178,165.452,110.8s7.243-19.423,24.46-32.47a105.78,105.78,0,0,1,27.712-14.6c12.46-4.466,22.887-5.761,24.5-3.857s-1.368,11.98-7.805,23.55a106.152,106.152,0,0,1-18.946,24.942C199.686,123.21,179.341,127.178,179.341,127.178Z" transform="translate(-165.451 -59.017)" fill="#c7c7c7"/>
        <g id="Group_56" data-name="Group 56" transform="translate(27.235 19.344)">
          <path id="Path_242" data-name="Path 242" d="M264.633,140.142a12.385,12.385,0,1,1,1.437-17.456A12.385,12.385,0,0,1,264.633,140.142Z" transform="translate(-244.239 -117.158)" fill="#a6a6a6"/>
          <path id="Path_243" data-name="Path 243" d="M266.592,136.811a12.385,12.385,0,1,1,1.437-17.456A12.385,12.385,0,0,1,266.592,136.811Z" transform="translate(-245.52 -114.979)" fill="#127dcf"/>
          <path id="Path_244" data-name="Path 244" d="M271.327,141.1a8.59,8.59,0,1,1,.988-12.107A8.589,8.589,0,0,1,271.327,141.1Z" transform="translate(-252.705 -122.164)" fill="#fff"/>
          <g id="Group_55" data-name="Group 55" transform="translate(4.527 3.795)">
            <path id="Path_245" data-name="Path 245" d="M272.841,164.18a8.543,8.543,0,0,1-2.749,1.571l-6.9-.563a8.577,8.577,0,0,1-3.7-3.952l14.9,1.216A8.5,8.5,0,0,1,272.841,164.18Z" transform="translate(-258.744 -149.041)" fill="#ebebeb"/>
            <path id="Path_246" data-name="Path 246" d="M277.092,130.011l-13.753-1.123a8.583,8.583,0,0,1,13.753,1.123Z" transform="translate(-261.264 -125.958)" fill="#ebebeb"/>
            <path id="Path_247" data-name="Path 247" d="M273.907,155.609l-16.454-1.343a6.836,6.836,0,0,1-.118-.764l16.812,1.372C274.08,155.12,274,155.365,273.907,155.609Z" transform="translate(-257.335 -143.981)" fill="#ebebeb"/>
          </g>
        </g>
        <path id="Path_248" data-name="Path 248" d="M333.077,83.418l-16.7-19.693c12.46-4.466,22.887-5.761,24.5-3.857S339.514,71.848,333.077,83.418Z" transform="translate(-264.208 -59.017)" fill="#127dcf"/>
        <g id="Group_57" data-name="Group 57" transform="translate(55.89 5.098)">
          <path id="Path_249" data-name="Path 249" d="M328.326,75.04a.723.723,0,1,1,.084-1.019A.723.723,0,0,1,328.326,75.04Z" transform="translate(-327.135 -73.766)" fill="#fff"/>
          <path id="Path_250" data-name="Path 250" d="M336.918,85.175A.723.723,0,1,1,337,84.156.723.723,0,0,1,336.918,85.175Z" transform="translate(-332.758 -80.397)" fill="#fff"/>
          <path id="Path_251" data-name="Path 251" d="M345.511,95.31a.723.723,0,1,1,.084-1.019A.723.723,0,0,1,345.511,95.31Z" transform="translate(-338.38 -87.029)" fill="#fff"/>
          <path id="Path_252" data-name="Path 252" d="M354.1,105.445a.723.723,0,1,1,.084-1.019A.723.723,0,0,1,354.1,105.445Z" transform="translate(-344.002 -93.66)" fill="#fff"/>
          <path id="Path_253" data-name="Path 253" d="M362.7,115.579a.723.723,0,1,1,.084-1.019A.723.723,0,0,1,362.7,115.579Z" transform="translate(-349.625 -100.292)" fill="#fff"/>
        </g>
        <g id="Group_58" data-name="Group 58" transform="translate(2.817 50.122)">
          <path id="Path_254" data-name="Path 254" d="M174.79,205.29a.723.723,0,1,1,.084-1.019A.723.723,0,0,1,174.79,205.29Z" transform="translate(-173.6 -204.016)" fill="#a6a6a6"/>
          <path id="Path_255" data-name="Path 255" d="M183.383,215.425a.723.723,0,1,1,.084-1.019A.723.723,0,0,1,183.383,215.425Z" transform="translate(-179.223 -210.647)" fill="#a6a6a6"/>
          <path id="Path_256" data-name="Path 256" d="M191.976,225.559a.723.723,0,1,1,.084-1.019A.723.723,0,0,1,191.976,225.559Z" transform="translate(-184.845 -217.278)" fill="#a6a6a6"/>
          <path id="Path_257" data-name="Path 257" d="M200.568,235.694a.723.723,0,1,1,.084-1.019A.723.723,0,0,1,200.568,235.694Z" transform="translate(-190.467 -223.91)" fill="#a6a6a6"/>
          <path id="Path_258" data-name="Path 258" d="M209.161,245.829a.723.723,0,1,1,.084-1.019A.723.723,0,0,1,209.161,245.829Z" transform="translate(-196.09 -230.542)" fill="#a6a6a6"/>
        </g>
        <path id="Path_259" data-name="Path 259" d="M241.342,59.384c-9.617.684-26.264,6.512-43.793,20.256-12.949,10.152-22.4,27.92-26.8,37.409l-5.3-6.25s7.242-19.423,24.46-32.469a105.676,105.676,0,0,1,27.712-14.6C228.791,59.723,238.321,58.271,241.342,59.384Z" transform="translate(-165.45 -59.02)" fill="#fff" opacity="0.2"/>
      </g>
      <g id="Group_60" data-name="Group 60" transform="translate(14.865 52.706)">
        <path id="Path_260" data-name="Path 260" d="M166.305,229.614l-11.294-13.323,4.392-4.8,12.356,14.574Z" transform="translate(-155.011 -211.492)" fill="#127dcf"/>
        <path id="Path_261" data-name="Path 261" d="M176.892,226.07l-2.658,1.727-11.377-14.464,1.68-1.834Z" transform="translate(-160.145 -211.497)" opacity="0.1"/>
      </g>
      <g id="Group_61" data-name="Group 61" transform="translate(4.475 2.846)">
        <path id="Path_262" data-name="Path 262" d="M341.337,120.283l-5.161-.344-2.425,4.915.222-5.477-4.7-2.169,5.214.05,2.373-4.622-.127,5.194Z" transform="translate(-258.649 -96.949)" fill="#fcfcfc"/>
        <path id="Path_263" data-name="Path 263" d="M347.737,71.524l-2.885-.192L343.5,74.08l.124-3.061L341,69.806l2.914.028,1.326-2.583-.071,2.9Z" transform="translate(-266.317 -67.251)" fill="#fcfcfc"/>
        <path id="Path_264" data-name="Path 264" d="M280.222,241.042l-2.885-.192-1.355,2.747.124-3.061-2.625-1.213,2.914.028,1.326-2.583-.071,2.9Z" transform="translate(-222.14 -178.171)" fill="#fcfcfc"/>
        <path id="Path_265" data-name="Path 265" d="M131.7,167.29l-2.885-.192-1.355,2.747.124-3.061-2.625-1.213,2.914.028,1.326-2.583-.071,2.9Z" transform="translate(-124.956 -129.913)" fill="#fcfcfc"/>
      </g>
    </g>
    <path id="Path_266" data-name="Path 266" d="M135.338,240.838a45.628,45.628,0,0,0-13.233,13.415,36.112,36.112,0,0,0-5.665,18.061,33.023,33.023,0,0,0,1.18,9.639,34.371,34.371,0,0,0,4,9.056,39.5,39.5,0,0,0,6.433,7.795,49.962,49.962,0,0,0,8.2,6.214,50.56,50.56,0,0,1-8.971-5.292,41.3,41.3,0,0,1-7.623-7.322,37.1,37.1,0,0,1-8.027-19.926,42.133,42.133,0,0,1,4.128-21.671,54.027,54.027,0,0,1,13.725-17.617Z" transform="translate(0 -113.966)" fill="#127dcf" opacity="0.6"/>
    <g id="Group_63" data-name="Group 63" transform="translate(112.734 126.506)">
      <path id="Path_267" data-name="Path 267" d="M145.053,273.713l-2.06.381-.46,2.171-.46-2.171-2.06-.382,2.051-.5.469-2.051.469,2.051Z" transform="translate(-131.403 -265.317)" fill="#fff"/>
      <path id="Path_268" data-name="Path 268" d="M127.33,393.483l-1.151.213-.257,1.214-.257-1.214-1.151-.214,1.146-.28.262-1.146.262,1.146Z" transform="translate(-121.261 -344.423)" fill="#fff"/>
      <path id="Path_269" data-name="Path 269" d="M125.541,363.007l-1.151.213-.257,1.214-.257-1.214-1.151-.213,1.146-.28.262-1.146.262,1.146Z" transform="translate(-120.09 -324.482)" fill="#fff"/>
      <path id="Path_270" data-name="Path 270" d="M144.857,256.264l-1.151.213-.257,1.214-.257-1.214-1.151-.214,1.146-.28.262-1.146.262,1.146Z" transform="translate(-132.729 -254.636)" fill="#fff"/>
      <path id="Path_271" data-name="Path 271" d="M139.932,403.778a.334.334,0,0,0,0,.667A.334.334,0,0,0,139.932,403.778Z" transform="translate(-131.139 -352.093)" fill="#fff"/>
      <path id="Path_272" data-name="Path 272" d="M167.492,254.258a.334.334,0,0,0,0,.667A.334.334,0,0,0,167.492,254.258Z" transform="translate(-149.173 -254.258)" fill="#fff"/>
      <path id="Path_273" data-name="Path 273" d="M115.506,340.366a.334.334,0,0,0,0,.667A.334.334,0,0,0,115.506,340.366Z" transform="translate(-115.157 -310.601)" fill="#fff"/>
      <path id="Path_274" data-name="Path 274" d="M138.391,398.754a.236.236,0,0,0,0,.473A.236.236,0,0,0,138.391,398.754Z" transform="translate(-130.193 -348.806)" fill="#fff"/>
      <path id="Path_275" data-name="Path 275" d="M115.333,306.628a.236.236,0,0,0,0,.472A.236.236,0,0,0,115.333,306.628Z" transform="translate(-115.105 -288.525)" fill="#fff"/>
      <path id="Path_276" data-name="Path 276" d="M121.554,376.493a.64.64,0,0,0,0,1.28A.64.64,0,0,0,121.554,376.493Z" transform="translate(-118.921 -334.24)" fill="#fff"/>
      <path id="Path_277" data-name="Path 277" d="M123.342,300.347a.64.64,0,0,0,0,1.28A.64.64,0,0,0,123.342,300.347Z" transform="translate(-120.09 -284.415)" fill="#fff"/>
    </g>
  </g>
</svg>
