<svg id="Group_65" data-name="Group 65" xmlns="http://www.w3.org/2000/svg" width="95.764" height="132.034" viewBox="0 0 95.764 132.034">
  <g id="Group_62" data-name="Group 62" transform="translate(0 0)">
    <g id="Group_53" data-name="Group 53" transform="translate(53.536 19.624)">
      <path id="Path_237" data-name="Path 237" d="M112.009,118.225c.247-.291,14.468-6.889,27.345,2.94,11.84,9.037,15.951,26.019,14.379,26.425-1.924.5-7.2-7.607-17.325-12.059-3.59-1.579-9.307,0-9.307,0Z" transform="translate(-112.009 -115.789)" fill="#67ea97"/>
      <path id="Path_238" data-name="Path 238" d="M190.043,135.532a22.476,22.476,0,0,1,5.2-.7c-2.231-4.673-6.4-13.393-9.108-19.039a26.052,26.052,0,0,0-11.179,2.433Z" transform="translate(-174.952 -115.792)" opacity="0.1"/>
    </g>
    <g id="Group_54" data-name="Group 54" transform="translate(29.191 49.69)">
      <path id="Path_239" data-name="Path 239" d="M198.773,202.768c-.247.291-4.429,15.4,7.373,26.5,10.852,10.2,28.278,11.48,28.421,9.863.176-1.98-8.683-5.859-14.731-15.12-2.145-3.284-1.524-9.181-1.524-9.181Z" transform="translate(-197.853 -202.768)" fill="#67ea97"/>
      <path id="Path_240" data-name="Path 240" d="M244.738,214.273c6.062,1.766,15.361,4.471,20.276,5.9a22.6,22.6,0,0,1-.177-5.345L245.3,202.768A26.1,26.1,0,0,0,244.738,214.273Z" transform="translate(-244.38 -202.768)" opacity="0.1"/>
    </g>
    <g id="Group_59" data-name="Group 59" transform="translate(0)">
      <path id="Path_241" data-name="Path 241" d="M228.671,127.178,242.56,110.8s-7.243-19.423-24.46-32.47a105.78,105.78,0,0,0-27.712-14.6c-12.46-4.466-22.887-5.761-24.5-3.857s1.368,11.98,7.805,23.55a106.151,106.151,0,0,0,18.946,24.942C208.325,123.21,228.671,127.178,228.671,127.178Z" transform="translate(-165.452 -59.017)" fill="#e1e1e1"/>
      <g id="Group_56" data-name="Group 56" transform="translate(24.425 19.344)">
        <path id="Path_242" data-name="Path 242" d="M248.615,140.142a12.385,12.385,0,1,0-1.437-17.456A12.385,12.385,0,0,0,248.615,140.142Z" transform="translate(-243.561 -117.158)" fill="#a6a6a6"/>
        <path id="Path_243" data-name="Path 243" d="M250.574,136.811a12.385,12.385,0,1,0-1.437-17.456A12.385,12.385,0,0,0,250.574,136.811Z" transform="translate(-246.198 -114.979)" fill="#67ea97"/>
        <path id="Path_244" data-name="Path 244" d="M260.209,141.1a8.59,8.59,0,1,0-.988-12.107A8.589,8.589,0,0,0,260.209,141.1Z" transform="translate(-253.383 -122.164)" fill="#fff"/>
        <g id="Group_55" data-name="Group 55" transform="translate(4.108 3.795)">
          <path id="Path_245" data-name="Path 245" d="M261.035,164.18a8.543,8.543,0,0,0,2.749,1.571l6.9-.563a8.577,8.577,0,0,0,3.7-3.952l-14.9,1.216A8.5,8.5,0,0,0,261.035,164.18Z" transform="translate(-258.32 -149.041)" fill="#ebebeb"/>
          <path id="Path_246" data-name="Path 246" d="M263.339,130.011l13.753-1.123a8.583,8.583,0,0,0-13.753,1.123Z" transform="translate(-262.355 -125.958)" fill="#ebebeb"/>
          <path id="Path_247" data-name="Path 247" d="M257.576,155.609l16.454-1.343a6.836,6.836,0,0,0,.118-.764l-16.812,1.372C257.4,155.12,257.485,155.365,257.576,155.609Z" transform="translate(-257.335 -143.981)" fill="#ebebeb"/>
        </g>
      </g>
      <path id="Path_248" data-name="Path 248" d="M324.62,83.418l16.7-19.693c-12.46-4.466-22.887-5.761-24.5-3.857S318.183,71.848,324.62,83.418Z" transform="translate(-316.38 -59.017)" fill="#67ea97"/>
      <g id="Group_57" data-name="Group 57" transform="translate(7.892 5.098)">
        <path id="Path_249" data-name="Path 249" d="M327.391,75.04a.723.723,0,1,0-.084-1.019A.723.723,0,0,0,327.391,75.04Z" transform="translate(-315.255 -73.766)" fill="#fff"/>
        <path id="Path_250" data-name="Path 250" d="M335.983,85.175a.723.723,0,1,0-.084-1.019A.723.723,0,0,0,335.983,85.175Z" transform="translate(-326.817 -80.398)" fill="#fff"/>
        <path id="Path_251" data-name="Path 251" d="M344.576,95.31a.723.723,0,1,0-.084-1.019A.723.723,0,0,0,344.576,95.31Z" transform="translate(-338.381 -87.029)" fill="#fff"/>
        <path id="Path_252" data-name="Path 252" d="M353.169,105.445a.723.723,0,1,0-.084-1.019A.723.723,0,0,0,353.169,105.445Z" transform="translate(-349.943 -93.66)" fill="#fff"/>
        <path id="Path_253" data-name="Path 253" d="M361.761,115.579a.723.723,0,1,0-.084-1.019A.723.723,0,0,0,361.761,115.579Z" transform="translate(-361.506 -100.292)" fill="#fff"/>
      </g>
      <g id="Group_58" data-name="Group 58" transform="translate(60.964 50.122)">
        <path id="Path_254" data-name="Path 254" d="M173.855,205.29a.723.723,0,1,0-.084-1.019A.723.723,0,0,0,173.855,205.29Z" transform="translate(-161.719 -204.016)" fill="#a6a6a6"/>
        <path id="Path_255" data-name="Path 255" d="M182.448,215.425a.723.723,0,1,0-.084-1.019A.723.723,0,0,0,182.448,215.425Z" transform="translate(-173.282 -210.647)" fill="#a6a6a6"/>
        <path id="Path_256" data-name="Path 256" d="M191.041,225.559a.723.723,0,1,0-.084-1.019A.723.723,0,0,0,191.041,225.559Z" transform="translate(-184.845 -217.278)" fill="#a6a6a6"/>
        <path id="Path_257" data-name="Path 257" d="M199.633,235.694a.723.723,0,1,0-.084-1.019A.723.723,0,0,0,199.633,235.694Z" transform="translate(-196.408 -223.91)" fill="#a6a6a6"/>
        <path id="Path_258" data-name="Path 258" d="M208.226,245.829a.723.723,0,1,0-.084-1.019A.723.723,0,0,0,208.226,245.829Z" transform="translate(-207.97 -230.542)" fill="#a6a6a6"/>
      </g>
      <path id="Path_259" data-name="Path 259" d="M165.45,59.384c9.617.684,26.264,6.512,43.793,20.256,12.949,10.152,22.4,27.92,26.8,37.409l5.3-6.25S234.1,91.376,216.882,78.33a105.676,105.676,0,0,0-27.712-14.6C178,59.723,168.471,58.271,165.45,59.384Z" transform="translate(-164.234 -59.02)" fill="#fff" opacity="0.2"/>
    </g>
    <g id="Group_60" data-name="Group 60" transform="translate(63.968 52.706)">
      <path id="Path_260" data-name="Path 260" d="M160.466,229.614l11.294-13.323-4.392-4.8-12.356,14.574Z" transform="translate(-155.011 -211.492)" fill="#67ea97"/>
      <path id="Path_261" data-name="Path 261" d="M162.857,226.07l2.658,1.727,11.377-14.464-1.68-1.834Z" transform="translate(-162.856 -211.497)" opacity="0.1"/>
    </g>
    <g id="Group_61" data-name="Group 61" transform="translate(8.417 2.846)">
      <path id="Path_262" data-name="Path 262" d="M329.277,120.283l5.161-.344,2.425,4.915-.222-5.476,4.7-2.169-5.214.05-2.373-4.622.127,5.194Z" transform="translate(-329.277 -96.949)" fill="#fcfcfc"/>
      <path id="Path_263" data-name="Path 263" d="M341,71.524l2.885-.192,1.355,2.747-.124-3.061,2.625-1.213-2.914.028L343.5,67.251l.071,2.9Z" transform="translate(-339.727 -67.251)" fill="#fcfcfc"/>
      <path id="Path_264" data-name="Path 264" d="M273.481,241.042l2.885-.192,1.355,2.747-.124-3.061,2.625-1.213-2.914.028-1.326-2.583.071,2.9Z" transform="translate(-248.875 -178.171)" fill="#fcfcfc"/>
      <path id="Path_265" data-name="Path 265" d="M124.956,167.29l2.885-.192,1.355,2.747-.124-3.061,2.625-1.213-2.914.028-1.326-2.583.071,2.9Z" transform="translate(-49.009 -129.913)" fill="#fcfcfc"/>
    </g>
  </g>
  <path id="Path_266" data-name="Path 266" d="M112.39,240.838a45.628,45.628,0,0,1,13.233,13.415,36.112,36.112,0,0,1,5.665,18.061,33.023,33.023,0,0,1-1.18,9.639,34.372,34.372,0,0,1-4,9.056,39.5,39.5,0,0,1-6.433,7.795,49.962,49.962,0,0,1-8.2,6.214,50.56,50.56,0,0,0,8.971-5.292,41.3,41.3,0,0,0,7.623-7.322,37.1,37.1,0,0,0,8.027-19.926,42.133,42.133,0,0,0-4.128-21.671,54.027,54.027,0,0,0-13.725-17.617Z" transform="translate(-40.483 -172.984)" fill="#67ea97" opacity="0.6"/>
  <g id="Group_63" data-name="Group 63" transform="translate(75.869 67.489)">
    <path id="Path_267" data-name="Path 267" d="M140.012,273.713l2.06.381.46,2.171.46-2.171,2.06-.382-2.051-.5-.469-2.051-.469,2.051Z" transform="translate(-135.021 -265.317)" fill="#fff"/>
    <path id="Path_268" data-name="Path 268" d="M124.512,393.483l1.151.213.257,1.214.257-1.214,1.151-.214-1.146-.28-.262-1.146-.262,1.146Z" transform="translate(-111.94 -344.423)" fill="#fff"/>
    <path id="Path_269" data-name="Path 269" d="M122.724,363.007l1.151.213.257,1.214.257-1.214,1.151-.213-1.146-.28-.262-1.146-.262,1.146Z" transform="translate(-109.533 -324.482)" fill="#fff"/>
    <path id="Path_270" data-name="Path 270" d="M142.039,256.264l1.151.213.257,1.214.257-1.214,1.151-.214-1.146-.28-.262-1.146-.262,1.146Z" transform="translate(-135.525 -254.636)" fill="#fff"/>
    <path id="Path_271" data-name="Path 271" d="M139.931,403.778a.334.334,0,0,1,0,.667A.334.334,0,0,1,139.931,403.778Z" transform="translate(-130.082 -352.093)" fill="#fff"/>
    <path id="Path_272" data-name="Path 272" d="M167.492,254.258a.334.334,0,0,1,0,.667A.334.334,0,0,1,167.492,254.258Z" transform="translate(-167.17 -254.258)" fill="#fff"/>
    <path id="Path_273" data-name="Path 273" d="M115.506,340.366a.334.334,0,0,1,0,.667A.334.334,0,0,1,115.506,340.366Z" transform="translate(-97.214 -310.601)" fill="#fff"/>
    <path id="Path_274" data-name="Path 274" d="M138.392,398.754a.236.236,0,0,1,0,.473A.236.236,0,0,1,138.392,398.754Z" transform="translate(-127.948 -348.806)" fill="#fff"/>
    <path id="Path_275" data-name="Path 275" d="M115.334,306.628a.236.236,0,0,1,0,.472A.236.236,0,0,1,115.334,306.628Z" transform="translate(-96.92 -288.525)" fill="#fff"/>
    <path id="Path_276" data-name="Path 276" d="M121.554,376.493a.64.64,0,0,1,0,1.28A.64.64,0,0,1,121.554,376.493Z" transform="translate(-105.546 -334.24)" fill="#fff"/>
    <path id="Path_277" data-name="Path 277" d="M123.342,300.347a.64.64,0,0,1,0,1.28A.64.64,0,0,1,123.342,300.347Z" transform="translate(-107.952 -284.415)" fill="#fff"/>
  </g>
</svg>
