<svg xmlns="http://www.w3.org/2000/svg" width="21.247" height="21.247" viewBox="0 0 21.247 21.247">
  <g id="shuttle" transform="translate(0)">
    <path id="Path_449" data-name="Path 449" d="M5.4,138.268l-1.841.142a1.643,1.643,0,0,0-1.252.737L.189,142.357a1.138,1.138,0,0,0,.775,1.752l1.685.261A15.093,15.093,0,0,1,5.4,138.268Z" transform="translate(0 -132.53)" fill="#fff"/>
    <path id="Path_450" data-name="Path 450" d="M226.682,384.519l.261,1.685a1.137,1.137,0,0,0,1.752.775l3.211-2.123a1.642,1.642,0,0,0,.736-1.252l.142-1.841A15.092,15.092,0,0,1,226.682,384.519Z" transform="translate(-217.275 -365.922)" fill="#fff"/>
    <path id="Path_451" data-name="Path 451" d="M96.959,243.106a1.069,1.069,0,0,0,.176-.015,12.2,12.2,0,0,0,2.527-.717l-6.927-6.927a12.194,12.194,0,0,0-.717,2.527,1.086,1.086,0,0,0,.306.945l3.865,3.865A1.09,1.09,0,0,0,96.959,243.106Z" transform="translate(-88.186 -225.678)" fill="#fff"/>
    <path id="Path_452" data-name="Path 452" d="M137.365,9.42a16.783,16.783,0,0,0,1.669-8.365A1.091,1.091,0,0,0,138,.025C137.739.01,137.426,0,137.073,0a16.445,16.445,0,0,0-7.433,1.694,16.91,16.91,0,0,0-6.726,6.874.624.624,0,0,1,.058.05l7.47,7.47a.625.625,0,0,1,.05.058A16.91,16.91,0,0,0,137.365,9.42Zm-7.2-4.928a3.112,3.112,0,1,1-.912,2.2,3.116,3.116,0,0,1,.912-2.2Z" transform="translate(-117.813 0)" fill="#fff"/>
    <path id="Path_453" data-name="Path 453" d="M306.278,119.481a1.867,1.867,0,1,0-.547-1.32A1.87,1.87,0,0,0,306.278,119.481Z" transform="translate(-293.044 -111.468)" fill="#fff"/>
    <path id="Path_454" data-name="Path 454" d="M.927,346.242a.62.62,0,0,0,.44-.182L3.4,344.027a.622.622,0,0,0-.88-.88L.487,345.179a.622.622,0,0,0,.44,1.063Z" transform="translate(-0.292 -328.732)" fill="#fff"/>
    <path id="Path_455" data-name="Path 455" d="M4.973,388.028a.623.623,0,0,0-.88,0L.186,391.935a.622.622,0,0,0,.88.88l3.907-3.907a.623.623,0,0,0,0-.88Z" transform="translate(-0.004 -371.751)" fill="#fff"/>
    <path id="Path_456" data-name="Path 456" d="M92.281,432.909l-2.032,2.032a.622.622,0,1,0,.88.88l2.032-2.032a.622.622,0,0,0-.88-.88Z" transform="translate(-86.329 -414.769)" fill="#fff"/>
  </g>
</svg>
