<svg xmlns="http://www.w3.org/2000/svg" width="19.369" height="27.256" viewBox="0 0 19.369 27.256">
  <g id="touch" transform="translate(0.001)">
    <path id="Path_123" data-name="Path 123" d="M4.85,17.165a2.025,2.025,0,0,0-2.318-3.251A8.1,8.1,0,0,1,1.065,9.235a8.187,8.187,0,0,1,7.7-8.171A.533.533,0,1,0,8.708,0,9.254,9.254,0,0,0,0,9.236,9.161,9.161,0,0,0,1.728,14.62,2.024,2.024,0,0,0,4.85,17.165ZM2.741,15.055a.959.959,0,1,1,0,1.356.956.956,0,0,1,0-1.356Zm0,0" transform="translate(0 0)" fill="#fff"/>
    <path id="Path_124" data-name="Path 124" d="M70.72,31.161a1.893,1.893,0,0,0-.928.242,1.9,1.9,0,0,0-3.191-.748,1.93,1.93,0,0,0-.319-.266,9.253,9.253,0,0,0,5.475-8.446,9.165,9.165,0,0,0-1.729-5.385,2.025,2.025,0,1,0-.8.706,8.188,8.188,0,0,1-4.836,12.647V27.044a5.437,5.437,0,1,0-7.317-5.1,5.392,5.392,0,0,0,1.08,3.253,5.492,5.492,0,0,0,2.426,1.829V34.86l-.669-1.1a1.962,1.962,0,0,0-2.672-.682,1.983,1.983,0,0,0-.788,2.572l1.987,4.014a.533.533,0,0,0,.955-.472L57.4,35.184A.908.908,0,0,1,59,34.317l1.656,2.718a.533.533,0,0,0,.988-.277V24.536a.84.84,0,0,1,1.681,0v2.107s0,.007,0,.011v8a.533.533,0,0,0,1.065,0V31.975a.84.84,0,1,1,1.68,0v2.871a.533.533,0,1,0,1.065,0V31.975a.84.84,0,1,1,1.68,0v2.907a.533.533,0,1,0,1.065,0V33.067a.84.84,0,0,1,1.681,0V39.43a.533.533,0,1,0,1.065,0V33.067a1.908,1.908,0,0,0-1.906-1.906ZM67.66,16.123a.959.959,0,1,1,1.356,0A.96.96,0,0,1,67.66,16.123Zm-9.524,5.82a4.371,4.371,0,1,1,6.252,3.946V24.536A1.892,1.892,0,0,0,64.2,23.7a2.439,2.439,0,1,0-3.409-.032,1.893,1.893,0,0,0-.209.866v1.331a4.349,4.349,0,0,1-2.441-3.924Zm3.38.952a1.361,1.361,0,0,1-.383-.952,1.374,1.374,0,1,1,2.347.97,1.9,1.9,0,0,0-1.963-.018Zm0,0" transform="translate(-53.258 -12.707)" fill="#fff"/>
    <path id="Path_125" data-name="Path 125" d="M199.728,4.632a.533.533,0,1,0-.376-.156A.536.536,0,0,0,199.728,4.632Zm0,0" transform="translate(-188.592 -3.377)" fill="#fff"/>
  </g>
</svg>
