<svg xmlns="http://www.w3.org/2000/svg" width="27.894" height="27.906" viewBox="0 0 27.894 27.906"><defs><style>.a{fill:#0078cf;}</style></defs><path class="a" d="M4729.666-1113.737l2.556-1.866a5.3,5.3,0,0,0-3.273-2.236c-2.885-.778-5.159.3-5.761,2.89s-.076,4.361,2.347,5.6c1.057.542,2.125,1.061,3.188,1.59.566.282.967.761.721,1.353a2.282,2.282,0,0,1-1.074,1.127,2.389,2.389,0,0,1-2.885-.758c-.257-.284-.495-.584-.819-.969l-2.755,1.652a6.281,6.281,0,0,0,5.468,3.407c-3.34,3.256-10.494,4.6-16.167.854a13.972,13.972,0,0,1-4.4-18.711,13.883,13.883,0,0,1,18.6-5.26c6.5,3.487,8.329,10.663,6.942,15.277-1.253-.613-2.539-1.237-3.82-1.87a12.97,12.97,0,0,1-1.645-.872,1.16,1.16,0,0,1-.476-1.687,1.328,1.328,0,0,1,1.772-.584A10.024,10.024,0,0,1,4729.666-1113.737Zm-16.071,5.263v3.834c0,2.413,0,2.377,2.454,2.408.842.01,1.073-.287,1.065-1.08-.031-3.031-.012-6.062-.012-9.093,0-2.16,0-2.16,2.146-2.16,2.336,0,2.324,0,2.175-2.39-.028-.451-.165-.631-.627-.63-3.655.011-7.312-.049-10.965.036-1.237.029-.527,1.152-.633,1.765-.08.462-.3,1.224.668,1.218.832-.005,1.664,0,2.5,0,1.23,0,1.23,0,1.231,1.188Q4713.6-1110.926,4713.595-1108.474Z" transform="translate(-4704.899 1126.732)"/></svg>